<svg xmlns="http://www.w3.org/2000/svg" xmlns:xlink="http://www.w3.org/1999/xlink" viewBox="0 0 130.64 126.9"><defs><style>.cls-1{fill:none;}.cls-2{isolation:isolate;}.cls-3{mix-blend-mode:multiply;fill:url(#linear-gradient);}.cls-4{clip-path:url(#clip-path);}.cls-5{fill:url(#radial-gradient);}.cls-6{fill:#1c3268;}.cls-7{fill:#f3f0eb;}.cls-8{fill:#e72311;}.cls-9{fill:#29375f;}</style><linearGradient id="linear-gradient" x1="975.55" y1="-1259.46" x2="1051.03" y2="-1259.46" gradientTransform="matrix(0, 0.95, -1, 0, -1189.05, -895.34)" gradientUnits="userSpaceOnUse"><stop offset="0" stop-color="#a89dac"/><stop offset="1" stop-color="#fff"/></linearGradient><clipPath id="clip-path" transform="translate(4.43)"><path class="cls-1" d="M42.91,0A43,43,0,1,0,53.26,1.27,42.94,42.94,0,0,0,42.91,0h0"/></clipPath><radialGradient id="radial-gradient" cx="-1766.44" cy="1940.96" r="0.22" gradientTransform="matrix(197.47, 0, 0, -197.47, 348862.27, 383319.98)" gradientUnits="userSpaceOnUse"><stop offset="0" stop-color="#fff"/><stop offset="0.78" stop-color="#fff"/><stop offset="0.82" stop-color="#f9f9f8"/><stop offset="0.88" stop-color="#eae7e3"/><stop offset="0.95" stop-color="#d0cac2"/><stop offset="1" stop-color="#bdb5a9"/></radialGradient></defs><g class="cls-2"><g id="Layer_2" data-name="Layer 2"><g id="Layer_1-2" data-name="Layer 1"><rect class="cls-3" x="27.45" y="35.09" width="85.89" height="71.98" transform="translate(-25.21 70.6) rotate(-45)"/><g class="cls-4"><rect class="cls-5" width="94.74" height="90.31"/></g><path class="cls-6" d="M1.27,32.63a42.93,42.93,0,1,1,31.36,52,42.91,42.91,0,0,1-31.36-52" transform="translate(4.43)"/><path class="cls-7" d="M73.4,12.67,56.13,24.18V2.09c-.94-.31-1.9-.58-2.87-.82a42.64,42.64,0,0,0-23.62.85V24.18L12.44,12.72A42.55,42.55,0,0,0,3.13,26.87l4.55,3H2c-.28.89-.54,1.79-.77,2.72a42.71,42.71,0,0,0,.9,23.77H7.8l-4.51,3a43.28,43.28,0,0,0,9.45,14L29.64,62.2V83.76c1,.32,2,.6,3,.85a42.68,42.68,0,0,0,23.5-.81V62.2l17,11.31a42.79,42.79,0,0,0,9.47-14L78,56.4h5.74c.34-1,.64-2.08.91-3.15a42.68,42.68,0,0,0-.77-23.34H78.09l4.64-3.1A43.11,43.11,0,0,0,73.4,12.67" transform="translate(4.43)"/><path class="cls-8" d="M23,29.91,7.09,19.3a41.85,41.85,0,0,0-2.86,5.07l8.32,5.54ZM78.72,19.22a43.85,43.85,0,0,0-3.53-4.63L56.13,27.27v2.64h6.53ZM7.21,66.74a43.71,43.71,0,0,0,3.54,4.61L29.64,58.8V56.4H22.75Zm78-31.32H50.61V.7a42.89,42.89,0,0,0-15.45,0V35.42H.68A42.7,42.7,0,0,0,.74,50.88H35.16V85.16a42.68,42.68,0,0,0,15.45,0V50.88H85.13a42.76,42.76,0,0,0,.09-15.46M63,56.4,78.65,66.79a41.78,41.78,0,0,0,2.89-5.05l-8-5.34Z" transform="translate(4.43)"/><path class="cls-9" d="M56.13,6.56h0V9.34a4.93,4.93,0,0,0,.26-1.5,3,3,0,0,0-.26-1.28" transform="translate(4.43)"/></g></g></g></svg>