<svg xmlns="http://www.w3.org/2000/svg" xmlns:xlink="http://www.w3.org/1999/xlink" viewBox="0 0 122.29 122.06"><defs><style>.cls-1{isolation:isolate;}.cls-2{mix-blend-mode:multiply;fill:url(#linear-gradient);}.cls-3{fill:#e72311;}.cls-4{fill:#ffd000;}</style><linearGradient id="linear-gradient" x1="780.74" y1="-1185.71" x2="856.22" y2="-1185.71" gradientTransform="matrix(0, 0.95, -1, 0, -1119.23, -714.38)" gradientUnits="userSpaceOnUse"><stop offset="0" stop-color="#a89dac"/><stop offset="1" stop-color="#fff"/></linearGradient></defs><g class="cls-1"><g id="Layer_2" data-name="Layer 2"><g id="Layer_1-2" data-name="Layer 1"><rect class="cls-2" x="23.53" y="30.25" width="85.89" height="71.98" transform="translate(-27.37 66.41) rotate(-45)"/><path class="cls-3" d="M1.27,32.63a42.93,42.93,0,1,1,31.36,52,42.92,42.92,0,0,1-31.36-52"/><path class="cls-3" d="M2.5,28.52H83.38a42.94,42.94,0,0,0-80.88,0"/><path class="cls-4" d="M85,51.77a2.74,2.74,0,0,1,.05-.28c0-.16.07-.32.1-.48a2.56,2.56,0,0,1,0-.27l.09-.5c0-.08,0-.17,0-.25s.07-.41.1-.62c0,0,0-.08,0-.12,0-.25.07-.5.1-.74l0-.2.06-.55a2.06,2.06,0,0,0,0-.26c0-.16,0-.32.05-.48l0-.27c0-.17,0-.33,0-.5s0-.17,0-.25,0-.38,0-.57a1,1,0,0,1,0-.17l0-.74a.49.49,0,0,1,0-.12c0-.21,0-.41,0-.62s0-.15,0-.23V42.29c0-.08,0-.16,0-.24s0-.37,0-.55,0-.12,0-.19c0-.49,0-1-.08-1.47,0-.06,0-.12,0-.19s0-.36-.05-.53,0-.16,0-.24,0-.33,0-.5l0-.23-.06-.54a1.1,1.1,0,0,1,0-.18c-.07-.49-.14-1-.22-1.46a.59.59,0,0,0,0-.13c0-.19-.07-.39-.1-.58s0-.14,0-.2-.07-.35-.1-.52,0-.14,0-.21l-.12-.54,0-.17c0-.22-.1-.44-.16-.65v0c0-.23-.11-.46-.17-.68h0q-.48-1.89-1.14-3.72H2.5q-.71,2-1.23,4.11a42.68,42.68,0,0,0-.74,17v.07c0,.2.07.4.11.6a.51.51,0,0,0,0,.13c0,.19.07.38.1.56s0,.12,0,.17.07.35.1.53l0,.2c0,.17.07.33.11.5a1.55,1.55,0,0,0,.05.23c0,.16.07.32.11.47l.09.36c.05.17.09.35.14.52s.09.35.14.52a2,2,0,0,0,.07.23c0,.16.09.33.14.49s.05.15.07.23L2,56c0,.07.05.15.08.22s.1.33.16.49l.07.22c.06.16.12.33.17.49a.76.76,0,0,1,0,.11h0c0,.1.07.21.11.31H83.22l.1-.31h0c.09-.25.17-.5.26-.76a.19.19,0,0,0,0-.07c.12-.33.22-.66.33-1,0,0,0-.09,0-.14.1-.31.19-.63.28-.95l.06-.2q.15-.55.3-1.14c.06-.24.12-.49.17-.74l.06-.24c0-.16.07-.33.11-.5"/></g></g></g></svg>