<svg xmlns="http://www.w3.org/2000/svg" viewBox="0 0 125.29 125.29"><defs><style>.cls-1{fill:#fff;}.cls-2{fill:none;stroke:#fff;stroke-miterlimit:10;stroke-width:3px;}</style></defs><g id="Layer_2" data-name="Layer 2"><g id="Layer_1-2" data-name="Layer 1"><path class="cls-1" d="M43.44,48.26,79,83.82a2.39,2.39,0,0,0,3.38-3.37L46.81,44.88a2.39,2.39,0,0,0-3.37,3.38Z"/><path class="cls-1" d="M82.38,44.88a2.4,2.4,0,0,0-3.38,0L43.44,80.45a2.38,2.38,0,0,0,3.37,3.37L82.38,48.26A2.4,2.4,0,0,0,82.38,44.88Z"/><polygon class="cls-2" points="75.48 123.57 80.2 118.85 118.85 80.2 123.57 75.48 104.98 20.31 49.81 1.72 45.09 6.44 6.44 45.09 1.72 49.81 20.31 104.98 75.48 123.57"/></g></g></svg>