<svg xmlns="http://www.w3.org/2000/svg" viewBox="0 0 125.29 125.29"><defs><style>.cls-1{stroke:#000;stroke-width:2px;}.cls-1,.cls-2{stroke-miterlimit:10;}.cls-2{fill:none;stroke:#333;stroke-width:3px;}</style></defs><g id="Layer_2" data-name="Layer 2"><g id="Layer_1-2" data-name="Layer 1"><path class="cls-1" d="M44.56,47.74h36.7a1.74,1.74,0,0,0,0-3.48H44.56a1.74,1.74,0,1,0,0,3.48Z"/><path class="cls-1" d="M44.56,66.09h36.7a1.74,1.74,0,0,0,0-3.48H44.56a1.74,1.74,0,1,0,0,3.48Z"/><path class="cls-1" d="M83,82.7A1.74,1.74,0,0,0,81.26,81H44.56a1.74,1.74,0,1,0,0,3.48h36.7A1.74,1.74,0,0,0,83,82.7Z"/><polygon class="cls-2" points="75.48 123.57 80.2 118.85 118.85 80.2 123.57 75.48 104.98 20.31 49.81 1.72 45.09 6.44 6.44 45.09 1.72 49.81 20.31 104.98 75.48 123.57"/></g></g></svg>