<svg xmlns="http://www.w3.org/2000/svg" xmlns:xlink="http://www.w3.org/1999/xlink" viewBox="0 0 1091 127.89"><defs><style>.cls-1{isolation:isolate;}.cls-2{fill:#27a0d6;}.cls-3{mix-blend-mode:multiply;fill:url(#linear-gradient);}.cls-4{fill:none;stroke:#fff;stroke-miterlimit:10;stroke-width:2.74px;fill-rule:evenodd;}</style><linearGradient id="linear-gradient" x1="5702.82" y1="-5044.62" x2="5849.63" y2="-5044.62" gradientTransform="translate(5902 -4980.67) rotate(180)" gradientUnits="userSpaceOnUse"><stop offset="0.02" stop-color="#666"/><stop offset="0.11" stop-color="#a9a9a7"/><stop offset="0.17" stop-color="#c1c1bf"/><stop offset="0.25" stop-color="#d8d8d7"/><stop offset="0.34" stop-color="#e9e9e9"/><stop offset="0.44" stop-color="#f6f6f6"/><stop offset="0.58" stop-color="#fdfdfd"/><stop offset="0.89" stop-color="#fff"/></linearGradient></defs><g class="cls-1"><g id="Layer_2" data-name="Layer 2"><g id="Layer_1-2" data-name="Layer 1"><polygon class="cls-2" points="0 127.89 0 127.89 1051.11 127.89 1059.29 127.89 1091 63.95 1059.29 0 1051.11 0 0 0 0 0 0 63.95 0 127.89"/><polygon class="cls-3" points="84.08 127.89 92.26 127.89 159.29 127.89 167.47 127.89 199.18 63.95 167.47 0 159.29 0 92.26 0 84.08 0 52.37 63.95 84.08 127.89"/><path class="cls-4" d="M81,43.66l-.24-4.79c3.38-.39,10-1,13.38-1.34,1-.07,2.09-.3,3-.41a22.56,22.56,0,0,0,2.66-.2c.09-3-.18-5.92,2.66-7.89,2.57-.61,5.1-.84,6.93,2.24l.73,4.26a12,12,0,0,0,3.2-.18,39.14,39.14,0,0,1,4.43-.67c3.14-.37,6.3-.67,9.43-1,1.64-.21,3.27-.51,4.91-.75a3.71,3.71,0,0,1,1.64-.09c2.79,1.14,7.2,5.07,7.2,5.07l-6.69,6.88c-3.87.17-11.64,1-15.5,1.35-.24,0-.48,0-.72,0l-7.77.46a37.24,37.24,0,0,0-.1,9.71c1.24.24,2.53.55,3.84.73,4.76.7,9.54,1.28,14.3,2l-.17,4.25-.12,5-1.43,0a30.69,30.69,0,0,0-4-.64c-3.6-.49-7.19-1-10.8-1.44a14.61,14.61,0,0,0-1.9,0c0,4.2,0,8.32,0,12.44v24.8c-3.35.12-6.51,0-9.57.06-.16-.18-.22-.22-.26-.28s-.13-.14-.13-.2c0-12.66,0-25.33,0-38.21-1.28-.2-2.42-.41-3.57-.55-2.11-.3-4.23-.57-6.34-.84-1.48-.19-3-.39-4.46-.56-2.75-.33-5.58-.71-8.31-1.11l-2.9-.3L71.8,59l-3.25-3.72s2.29-2.07,3.49-2.91l2.9-2.22,4.42.77.86.15L87,52.24s8.49,1.47,12.86,2.61a72.94,72.94,0,0,0,.05-7.68,39.15,39.15,0,0,0-4.07,0c-2.75.26-5.48.69-8.22,1-1.46.16-4.39.23-4.39.23l-1.86-.15Z"/></g></g></g></svg>