<svg xmlns="http://www.w3.org/2000/svg" xmlns:xlink="http://www.w3.org/1999/xlink" viewBox="0 0 1091 127.89"><defs><style>.cls-1{isolation:isolate;}.cls-2{fill:#41c6c6;}.cls-3{mix-blend-mode:multiply;fill:url(#linear-gradient);}.cls-4{fill:#fff;}</style><linearGradient id="linear-gradient" x1="8176.82" y1="-5044.62" x2="8323.63" y2="-5044.62" gradientTransform="translate(8376 -4980.67) rotate(180)" gradientUnits="userSpaceOnUse"><stop offset="0.02" stop-color="#666"/><stop offset="0.11" stop-color="#a9a9a7"/><stop offset="0.17" stop-color="#c1c1bf"/><stop offset="0.25" stop-color="#d8d8d7"/><stop offset="0.34" stop-color="#e9e9e9"/><stop offset="0.44" stop-color="#f6f6f6"/><stop offset="0.58" stop-color="#fdfdfd"/><stop offset="0.89" stop-color="#fff"/></linearGradient></defs><g class="cls-1"><g id="Layer_2" data-name="Layer 2"><g id="Layer_1-2" data-name="Layer 1"><polygon class="cls-2" points="0 127.89 0 127.89 1051.11 127.89 1059.29 127.89 1091 63.95 1059.29 0 1051.11 0 0 0 0 0 0 63.95 0 127.89"/><polygon class="cls-3" points="84.08 127.89 92.26 127.89 159.29 127.89 167.47 127.89 199.18 63.95 167.47 0 159.29 0 92.26 0 84.08 0 52.37 63.95 84.08 127.89"/><path class="cls-4" d="M70.75,46.37a10.8,10.8,0,0,0,10.8-10.79,10.59,10.59,0,0,0-1.11-4.73A8,8,0,0,1,94.77,34c-.26.14-.5.3-.75.46a10.55,10.55,0,0,0-5.49-1.58H88.3v2.7h.23a7.92,7.92,0,0,1,3.48.83c-.11.15-.23.28-.34.44l-.45.68L93.47,39l.45-.68a6.2,6.2,0,0,1,5.17-2.76,2.7,2.7,0,1,1,0,5.4H89.64A2.7,2.7,0,0,1,87,38.28h-2.7a5.4,5.4,0,0,0,5.39,5.39h33.74a5.4,5.4,0,1,0,0-10.79,8.93,8.93,0,0,0-1.87.21A12,12,0,0,0,99.14,32l-.37.87a8.47,8.47,0,0,0-1.42.17A10.65,10.65,0,0,0,78.88,28.5a10.79,10.79,0,1,0-8.13,17.87Zm39.38-18.89A9.24,9.24,0,0,1,119,34.06c-.22.13-.44.26-.65.4a10.55,10.55,0,0,0-5.49-1.58h-.24v2.7h.24a8,8,0,0,1,3.48.83c-.12.15-.23.28-.34.44l-.45.68L117.75,39l.46-.68a6.2,6.2,0,0,1,5.17-2.76,2.7,2.7,0,1,1,0,5.4H103.74a5.32,5.32,0,0,0-2.27-7.52l.15-.37A9.24,9.24,0,0,1,110.13,27.48Zm-39.38,0a8.1,8.1,0,1,1-8.09,8.1A8.1,8.1,0,0,1,70.75,27.48Z"/><path class="cls-4" d="M135.52,73.36V67.29l5.4-4.05V59.87h-2.7v2l-2.7,2V57.17h-2.69v9.44l-2.7-2v-2h-2.7v3.37l5.4,4v3.37h-13.5V64.59l5.4-4.05V57.17H122v2l-2.7,2V55l2.31-2.3-1.91-1.91-3.1,3.09v10l-2.7-2v-2h-2.69v3.37l5.39,4.05v6.07H97.74V71.64l.67-.23a10.86,10.86,0,0,0,4.25-18l-6.27-6.27-5.16,5.17a10.84,10.84,0,0,0-2.07-2.95L82.9,43.12l-6.27,6.26a10.86,10.86,0,0,0,4.25,18l.67.23v5.77h-22L60.24,76a42.83,42.83,0,0,0,83.1,0l.66-2.65ZM98.6,81.81l1.54,2.31a1.72,1.72,0,0,1,.3,1,1.76,1.76,0,0,1-1.76,1.76H77.91a1.76,1.76,0,0,1-1.76-1.76,1.72,1.72,0,0,1,.3-1L78,81.8a5.07,5.07,0,0,0-.06-5.74H98.66a5.09,5.09,0,0,0-.06,5.75ZM96.39,51l4.36,4.36a8.15,8.15,0,0,1-3,13.44V67.17l3.65-3.65-1.9-1.91-1.75,1.75V60.43l2.3-2.31-1.9-1.91L95,59.31v9.46a8.14,8.14,0,0,1-3-13.43ZM76.15,57.06a8.11,8.11,0,0,1,2.39-5.77l4.36-4.36,4.36,4.36a8.25,8.25,0,0,1,1.95,3.2A10.77,10.77,0,0,0,87,61.11,11.14,11.14,0,0,0,87.11,63a8.11,8.11,0,0,1-2.86,1.78v-8.5l2.47-3.71L84.47,51,82.69,53.7l-1.54-1.53-1.9,1.9,2.3,2.31v2.93L79.8,57.56l-1.9,1.91,3.65,3.66v1.6a8.16,8.16,0,0,1-5.4-7.67Zm8.1,10.53.67-.23A10.57,10.57,0,0,0,88,65.72a10.83,10.83,0,0,0,6.38,5.69l.67.22v1.73H84.25Zm-10,8.47,1.2,1.2a2.43,2.43,0,0,1,.31,3L74.2,82.63a4.41,4.41,0,0,0-.75,2.47,4.46,4.46,0,0,0,4.46,4.45H98.68a4.46,4.46,0,0,0,4.46-4.45,4.41,4.41,0,0,0-.75-2.47l-1.55-2.32a2.43,2.43,0,0,1,.31-3l1.2-1.2h9.22a4.49,4.49,0,0,0-.33,1.68A4.37,4.37,0,0,0,114.55,82l5.7,1.42A2.36,2.36,0,0,1,122,85.7a2.33,2.33,0,0,1-1.48,2.18l-8.47,3.39a5.65,5.65,0,0,0-.7,10.14L115,103.5a39.9,39.9,0,0,1-12.87,2.23l-6.86-4.57a.61.61,0,0,1-.27-.51.6.6,0,0,1,.51-.59l4.63-.77a3.54,3.54,0,0,0-.58-7H71.79A40,40,0,0,1,63,76.06ZM93.81,103.4l3,2A40,40,0,0,1,74.41,95H99.6a.85.85,0,0,1,.14,1.68l-4.64.77a3.3,3.3,0,0,0-1.29,6Zm24.43-1.18-5.52-3.16a2.94,2.94,0,0,1,.37-5.28l8.46-3.39a5,5,0,0,0-.65-9.59l-5.69-1.43a1.68,1.68,0,0,1,.41-3.31h24.92a40.06,40.06,0,0,1-22.3,26.16Z"/><path class="cls-4" d="M108.54,46.37h2.7v2.7h-2.7Z"/><path class="cls-4" d="M111.24,51.77h2.69v2.7h-2.69Z"/><path class="cls-4" d="M116.63,46.37h2.7v2.7h-2.7Z"/><path class="cls-4" d="M122,49.07h2.7v2.7H122Z"/><path class="cls-4" d="M127.43,54.47h2.7v2.7h-2.7Z"/><path class="cls-4" d="M127.43,46.37h2.7v2.7h-2.7Z"/></g></g></g></svg>