<svg xmlns="http://www.w3.org/2000/svg" xmlns:xlink="http://www.w3.org/1999/xlink" viewBox="0 0 1091 127.89"><defs><style>.cls-1{isolation:isolate;}.cls-2{fill:#33a582;}.cls-3{mix-blend-mode:multiply;fill:url(#linear-gradient);}.cls-4{fill:#fff;}</style><linearGradient id="linear-gradient" x1="8176.82" y1="-11258.62" x2="8323.63" y2="-11258.62" gradientTransform="translate(8376 -11194.67) rotate(180)" gradientUnits="userSpaceOnUse"><stop offset="0.02" stop-color="#666"/><stop offset="0.11" stop-color="#a9a9a7"/><stop offset="0.17" stop-color="#c1c1bf"/><stop offset="0.25" stop-color="#d8d8d7"/><stop offset="0.34" stop-color="#e9e9e9"/><stop offset="0.44" stop-color="#f6f6f6"/><stop offset="0.58" stop-color="#fdfdfd"/><stop offset="0.89" stop-color="#fff"/></linearGradient></defs><g class="cls-1"><g id="Layer_2" data-name="Layer 2"><g id="Layer_1-2" data-name="Layer 1"><polygon class="cls-2" points="0 127.89 0 127.89 1051.11 127.89 1059.29 127.89 1091 63.95 1059.29 0 1051.11 0 0 0 0 0 0 63.95 0 127.89"/><polygon class="cls-3" points="84.08 127.89 92.26 127.89 159.29 127.89 167.47 127.89 199.18 63.95 167.47 0 159.29 0 92.26 0 84.08 0 52.37 63.95 84.08 127.89"/><path class="cls-4" d="M102.67,34.4a7.92,7.92,0,0,0-15.62,0c-15.32,1-30.33,5.18-30.33,12.46v38c0,6.23,10.76,9.4,17.18,10.74a1.66,1.66,0,0,0,.32,0A1.58,1.58,0,0,0,75.81,94V77c1-.2,2.08-.38,3.16-.54v.62a1.59,1.59,0,0,0,1.59,1.59h4.76v23.84a1.59,1.59,0,0,0,1.59,1.59h15.9a1.59,1.59,0,0,0,1.58-1.59V78.64h4.77a1.59,1.59,0,0,0,1.59-1.59v-.62c1.11.17,2.2.35,3.25.55V94a1.6,1.6,0,0,0,.59,1.24,1.58,1.58,0,0,0,1,.35,1.84,1.84,0,0,0,.33,0C122.3,94.21,133,91,133,84.83v-38C133,39.58,118,35.41,102.67,34.4ZM94.86,31a4.77,4.77,0,1,1-4.77,4.76A4.77,4.77,0,0,1,94.86,31ZM72.63,74.39c-.65.15-1.31.29-1.93.45A1.59,1.59,0,0,0,71.1,78a1.83,1.83,0,0,0,.4,0c.36-.1.76-.18,1.13-.27V92C63.85,89.93,59.9,87,59.9,84.83A2.89,2.89,0,0,1,60.73,83a1.59,1.59,0,0,0-.16-2.24,1.62,1.62,0,0,0-.67-.33V52.22c3.32,2.54,8.62,4.16,12.73,5.1V74.39Zm34.94,1.07h-4.76a1.59,1.59,0,0,0-1.59,1.59v23.84H88.5V77.05a1.59,1.59,0,0,0-1.59-1.59H82.15V54.92a1.54,1.54,0,0,1,.64-1.3,22.45,22.45,0,0,1,24.13,0,1.55,1.55,0,0,1,.65,1.3V75.46Zm22.25,5a1.62,1.62,0,0,0-.67.33A1.59,1.59,0,0,0,129,83a2.89,2.89,0,0,1,.83,1.82c0,2.12-3.92,5.08-12.64,7.18V77.67c.34.09.71.16,1,.25a1.83,1.83,0,0,0,.4,0,1.59,1.59,0,0,0,.4-3.13c-.59-.15-1.22-.29-1.84-.43V57.3c4.08-.94,9.33-2.55,12.64-5.08V80.44Zm-14.56-26A1.58,1.58,0,0,0,114,56V73.75c-1-.19-2.14-.37-3.25-.53V54.92a4.7,4.7,0,0,0-2.09-4,25.72,25.72,0,0,0-27.6,0,4.7,4.7,0,0,0-2.09,4v18.3c-1.08.16-2.14.33-3.16.51V56a1.58,1.58,0,0,0-1.26-1.55C64.43,52.37,59.9,49.13,59.9,46.86c0-3.67,10.39-8.16,27.25-9.27a7.92,7.92,0,0,0,15.41,0c16.87,1.11,27.26,5.6,27.26,9.27C129.82,49.12,125.32,52.35,115.26,54.47Z"/><path class="cls-4" d="M63,81a1.55,1.55,0,0,0,.75-.19,27.28,27.28,0,0,1,3.75-1.64,1.59,1.59,0,1,0-1.07-3A32,32,0,0,0,62.23,78,1.59,1.59,0,0,0,63,81Z"/><path class="cls-4" d="M122.23,79.14A27.28,27.28,0,0,1,126,80.78a1.52,1.52,0,0,0,.75.19,1.59,1.59,0,0,0,.75-3,31.27,31.27,0,0,0-4.18-1.83,1.59,1.59,0,1,0-1.07,3Z"/></g></g></g></svg>