<svg xmlns="http://www.w3.org/2000/svg" xmlns:xlink="http://www.w3.org/1999/xlink" viewBox="0 0 1091 127.89"><defs><style>.cls-1{isolation:isolate;}.cls-2{fill:#f1793d;}.cls-3{mix-blend-mode:multiply;fill:url(#linear-gradient);}.cls-4{fill:#fff;}</style><linearGradient id="linear-gradient" x1="11448.82" y1="-5044.62" x2="11595.63" y2="-5044.62" gradientTransform="translate(11648 -4980.67) rotate(180)" gradientUnits="userSpaceOnUse"><stop offset="0.02" stop-color="#666"/><stop offset="0.11" stop-color="#a9a9a7"/><stop offset="0.17" stop-color="#c1c1bf"/><stop offset="0.25" stop-color="#d8d8d7"/><stop offset="0.34" stop-color="#e9e9e9"/><stop offset="0.44" stop-color="#f6f6f6"/><stop offset="0.58" stop-color="#fdfdfd"/><stop offset="0.89" stop-color="#fff"/></linearGradient></defs><g class="cls-1"><g id="Layer_2" data-name="Layer 2"><g id="Layer_1-2" data-name="Layer 1"><polygon class="cls-2" points="0 127.89 0 127.89 1051.11 127.89 1059.29 127.89 1091 63.95 1059.29 0 1051.11 0 0 0 0 0 0 63.95 0 127.89"/><polygon class="cls-3" points="84.08 127.89 92.26 127.89 159.29 127.89 167.47 127.89 199.18 63.95 167.47 0 159.29 0 92.26 0 84.08 0 52.37 63.95 84.08 127.89"/><path class="cls-4" d="M130.93,65.68a5.81,5.81,0,0,0-8,.48l-5.7,6.12a5.83,5.83,0,0,0-5.55-4.09H101.51c-.77,0-1-.3-2.37-1.33a13.61,13.61,0,0,0-17.88,0l-3.73,3.29a5.8,5.8,0,0,0-5.33-.06l-4.29,2.14a1.94,1.94,0,0,0-.87,2.6L78.67,98.13a2,2,0,0,0,2.6.87l4.29-2.15a5.8,5.8,0,0,0,3.21-5.4h22.91A13.64,13.64,0,0,0,122.53,86l9.3-12.41A5.79,5.79,0,0,0,130.93,65.68ZM83.83,93.39l-2.56,1.27L71.38,74.87l2.55-1.28a1.94,1.94,0,0,1,2.6.87l8.16,16.33A1.94,1.94,0,0,1,83.83,93.39Zm44.9-22.1-9.3,12.4a9.73,9.73,0,0,1-7.75,3.88H87.42L80.16,73l3.66-3.23a9.72,9.72,0,0,1,12.81,0c2.15,1.9,3.49,2.26,4.88,2.26h10.17a1.94,1.94,0,0,1,0,3.87h-9.9a1.94,1.94,0,0,0,0,3.88H113A5.87,5.87,0,0,0,117.23,78l8.53-9.16a1.94,1.94,0,0,1,3,2.48Z"/><path class="cls-4" d="M107.59,46.27a7.7,7.7,0,0,0,2.15-5.34A7.86,7.86,0,0,0,102,33a8,8,0,0,0-7.89,7.89,7.59,7.59,0,0,0,2.22,5.35,11.85,11.85,0,0,0-6.09,10.28V58.5a1.94,1.94,0,0,0,1.94,1.94h19.51a1.93,1.93,0,0,0,1.93-1.94V56.56A11.8,11.8,0,0,0,107.59,46.27ZM102,36.92a4,4,0,0,1,3.87,4A3.88,3.88,0,0,1,102,44.8a4,4,0,0,1-4-3.87A4.11,4.11,0,0,1,102,36.92ZM94.1,56.56A8,8,0,0,1,102,48.68a7.82,7.82,0,0,1,7.75,7.88Z"/></g></g></g></svg>