<svg xmlns="http://www.w3.org/2000/svg" xmlns:xlink="http://www.w3.org/1999/xlink" viewBox="0 0 1090.73 127.89"><defs><style>.cls-1{isolation:isolate;}.cls-2{fill:#bd6b99;}.cls-3{mix-blend-mode:multiply;fill:url(#linear-gradient);}.cls-4{fill:#fff;}</style><linearGradient id="linear-gradient" x1="598.55" y1="113.38" x2="745.36" y2="113.38" gradientTransform="translate(797.46 177.33) rotate(180)" gradientUnits="userSpaceOnUse"><stop offset="0.02" stop-color="#666"/><stop offset="0.11" stop-color="#a9a9a7"/><stop offset="0.17" stop-color="#c1c1bf"/><stop offset="0.25" stop-color="#d8d8d7"/><stop offset="0.34" stop-color="#e9e9e9"/><stop offset="0.44" stop-color="#f6f6f6"/><stop offset="0.58" stop-color="#fdfdfd"/><stop offset="0.89" stop-color="#fff"/></linearGradient></defs><g class="cls-1"><g id="Layer_2" data-name="Layer 2"><g id="Layer_1-2" data-name="Layer 1"><polygon class="cls-2" points="0 127.89 0 127.89 1050.84 127.89 1059.02 127.89 1090.73 63.95 1059.02 0 1050.84 0 0 0 0 0 0 63.95 0 127.89"/><polygon class="cls-3" points="83.81 127.89 92 127.89 159.02 127.89 167.2 127.89 198.91 63.95 167.2 0 159.02 0 92 0 83.81 0 52.11 63.95 83.81 127.89"/><path class="cls-4" d="M112.4,65.54a4.33,4.33,0,1,1,4.32-4.32A4.32,4.32,0,0,1,112.4,65.54Z"/><path class="cls-4" d="M70.3,62.07,67.37,85.18l21,8,25.22-12,22,9.28-3-24.66,2.84-24.27-23.35-4.39L88.31,41.61l-21-4.85ZM88.47,90.71l-18.62-7,1.28-10.11,18.57,4.7Zm2.47-1.28,1-10.59h0l12.85-1.66.08-.28c0-.07,1.5-5.57,3.08-8.08A8.7,8.7,0,0,0,111.33,70l1,9.21Zm2-23.61,11.17-1.68a9,9,0,0,0,3.14,4.21,37.88,37.88,0,0,0-3.11,8.05L92,78Zm21.74,13.26-1-9.12a8.85,8.85,0,0,0,7.2-6.06l9.53,1.48.91,8.83c-3.15.21-5.52,1.24-7,3.07a8.6,8.6,0,0,0-1.84,5.06Zm18.2,7.68-9.6-4.05a7.91,7.91,0,0,1,1.64-4.87c1.37-1.65,3.55-2.57,6.48-2.75ZM133,43.29l-2.36,19.83-9.4-1.45c0-.15,0-.3,0-.46a8.76,8.76,0,0,0-1.91-5.47l4.88-3.91,1.54-9.89Zm-18.41-3.45,10.32,1.94-1.49,9.58-4.65,3.72a8.84,8.84,0,0,0-5.5-2.66Zm4.92,21.37a7.08,7.08,0,1,1-7.08-7.08A7.1,7.1,0,0,1,119.48,61.21Zm-7.36-21.82.2,0L111,52.51a8.85,8.85,0,0,0-7.38,8.71c0,.23,0,.46,0,.7L92.68,63.56l-.91-9.31c4.79-.23,8.37-1.7,10.63-4.42A13,13,0,0,0,105,40.74Zm-8,1.52a12.23,12.23,0,0,1-2.42,8.36c-2.1,2.53-5.48,3.9-10,4.1l-1-9.9ZM89.78,77.4,71.24,72.71,72.35,64l18.3,2.21Zm-14.91-21,8.44,1-1.55-15,6.76,1.45,1.91,20-.19,0-17.7-2.25-2.61-22,10.95,2.53,1.44,14.16-7.52-.87Z"/></g></g></g></svg>