<svg xmlns="http://www.w3.org/2000/svg" viewBox="0 0 206 206"><defs><style>.cls-1{fill:#bd6b99;}.cls-2{fill:none;stroke:#bd6b99;stroke-miterlimit:10;stroke-width:6px;}</style></defs><g id="Layer_2" data-name="Layer 2"><g id="Layer_1-2" data-name="Layer 1"><path class="cls-1" d="M115.16,51.65a12.33,12.33,0,0,0-24.32,0C67,53.22,43.63,59.7,43.63,71v59.11c0,9.69,16.75,14.63,26.74,16.72a2.94,2.94,0,0,0,.51,0,2.46,2.46,0,0,0,2.47-2.47V117.9c1.59-.3,3.24-.58,4.91-.83v1a2.48,2.48,0,0,0,2.48,2.48h7.42v37.1a2.47,2.47,0,0,0,2.47,2.48h24.74a2.47,2.47,0,0,0,2.47-2.48v-37.1h7.42a2.48,2.48,0,0,0,2.48-2.48v-1c1.73.26,3.42.54,5.06.86V144.4a2.44,2.44,0,0,0,.91,1.92,2.48,2.48,0,0,0,1.56.56,2.22,2.22,0,0,0,.51-.06c9.93-2.08,26.59-7,26.59-16.68V71C162.37,59.7,139,53.22,115.16,51.65ZM103,46.29a7.43,7.43,0,1,1-7.42,7.43A7.43,7.43,0,0,1,103,46.29Zm-34.6,67.6c-1,.23-2,.45-3,.7a2.48,2.48,0,0,0,.62,4.87,2.64,2.64,0,0,0,.62-.08c.56-.15,1.18-.28,1.76-.42v22.39c-13.66-3.28-19.82-7.9-19.82-11.21a4.44,4.44,0,0,1,1.29-2.83,2.42,2.42,0,0,0-1.29-4V79.38c5.18,4,13.43,6.48,19.82,7.94v26.57Zm54.39,1.67h-7.42a2.48,2.48,0,0,0-2.48,2.47v37.11H93.1V118a2.47,2.47,0,0,0-2.47-2.47H83.21v-32a2.4,2.4,0,0,1,1-2,35,35,0,0,1,37.56,0,2.4,2.4,0,0,1,1,2v32Zm34.63,7.75a2.51,2.51,0,0,0-1,.51,2.47,2.47,0,0,0-.24,3.49,4.44,4.44,0,0,1,1.29,2.83c0,3.29-6.11,7.9-19.68,11.17V119c.53.13,1.1.24,1.62.38a2.64,2.64,0,0,0,.62.08,2.48,2.48,0,0,0,.62-4.87c-.91-.24-1.9-.45-2.86-.67V87.28c6.35-1.45,14.53-4,19.68-7.91v43.94ZM134.76,82.87a2.48,2.48,0,0,0-2,2.43v27.6c-1.65-.3-3.33-.58-5.06-.83V83.58a7.31,7.31,0,0,0-3.26-6.17,40,40,0,0,0-43,0,7.31,7.31,0,0,0-3.26,6.17v28.49c-1.67.24-3.32.51-4.91.8V85.33a2.46,2.46,0,0,0-2-2.42C55.63,79.62,48.58,74.57,48.58,71c0-5.7,16.17-12.69,42.43-14.43a12.32,12.32,0,0,0,24,0c26.26,1.74,42.43,8.73,42.43,14.43C157.42,74.56,150.42,79.59,134.76,82.87Z"/><path class="cls-1" d="M53.39,124.13a2.35,2.35,0,0,0,1.17-.3,44,44,0,0,1,5.84-2.54,2.48,2.48,0,1,0-1.68-4.66,48.77,48.77,0,0,0-6.5,2.85,2.47,2.47,0,0,0,1.17,4.65Z"/><path class="cls-1" d="M145.6,121.29a44,44,0,0,1,5.84,2.54,2.35,2.35,0,0,0,1.17.3,2.47,2.47,0,0,0,1.17-4.65,48.77,48.77,0,0,0-6.5-2.85,2.48,2.48,0,0,0-1.68,4.66Z"/><circle class="cls-2" cx="103" cy="103" r="100"/></g></g></svg>