<svg xmlns="http://www.w3.org/2000/svg" viewBox="0 0 59.19 102.35"><defs><style>.cls-1{fill:#fff;}.cls-1,.cls-2{fill-rule:evenodd;}</style></defs><g id="Layer_2" data-name="Layer 2"><g id="Layer_1-2" data-name="Layer 1"><path class="cls-1" d="M7.27,29.59a22.32,22.32,0,1,1,42.8,8.89l-20.48,41-20.47-41A22,22,0,0,1,7.27,29.59Z"/><path class="cls-1" d="M9.8,87.64c0-1.91,4.74-5.23,12.36-6.75l4.18,8.38a3.64,3.64,0,0,0,6.51,0L37,80.87c7.7,1.46,12.34,4.78,12.34,6.77a3.11,3.11,0,0,1-1,2c-.11.1-.21.2-.31.31-2.72,2.53-9.44,5.11-18.47,5.11C17.7,95.07,9.8,90.6,9.8,87.64Z"/><path class="cls-2" d="M44.53,29.59A14.94,14.94,0,1,0,29.59,44.53,15,15,0,0,0,44.53,29.59Zm-22.6,0a7.67,7.67,0,1,1,7.66,7.66A7.67,7.67,0,0,1,21.93,29.59Z"/><path class="cls-2" d="M56.37,89.88a8.82,8.82,0,0,0,.29-2.24c0-6.81-7.58-11.42-16.27-13.49l16.23-32.5.08-.16A29.6,29.6,0,1,0,0,29.59a29.42,29.42,0,0,0,2.49,11.9l.08.16L18.81,74.19c-8.7,2.12-16.28,6.72-16.28,13.45,0,8.38,11.64,14.71,27.06,14.71,9.38,0,17.33-2.36,22.16-6C55.78,93.22,56.37,89.88,56.37,89.88ZM7.27,29.59a22.32,22.32,0,1,1,42.8,8.89l-20.48,41-20.47-41A22,22,0,0,1,7.27,29.59ZM9.8,87.64c0-1.91,4.74-5.23,12.36-6.75l4.18,8.38a3.64,3.64,0,0,0,6.51,0L37,80.87c7.7,1.46,12.34,4.78,12.34,6.77a3.11,3.11,0,0,1-1,2c-.11.1-.21.2-.31.31-2.72,2.53-9.44,5.11-18.47,5.11C17.7,95.07,9.8,90.6,9.8,87.64Z"/></g></g></svg>