<svg xmlns="http://www.w3.org/2000/svg" viewBox="0 0 97.78 76.96"><defs><style>.cls-1{fill:#bd6b99;}</style></defs><g id="Layer_2" data-name="Layer 2"><g id="Layer_1-2" data-name="Layer 1"><path class="cls-1" d="M94.53,12a10.53,10.53,0,0,0-7.71-3.25H71.39V8.55a8.35,8.35,0,0,0-2.51-6,8.51,8.51,0,0,0-6-2.51H35A8.57,8.57,0,0,0,26.3,8.55v.19H11A10.55,10.55,0,0,0,3.25,12,11.05,11.05,0,0,0,0,19.71V66a10.53,10.53,0,0,0,3.25,7.72A11.07,11.07,0,0,0,11,77H86.82a10.53,10.53,0,0,0,7.71-3.25A11.05,11.05,0,0,0,97.78,66V19.71A10.49,10.49,0,0,0,94.53,12ZM93,66h-.09a6,6,0,0,1-6,6.05H11a6,6,0,0,1-6-6.05V19.71a6,6,0,0,1,6-6.05H28.91a2.5,2.5,0,0,0,2.51-2.51V8.46a3.65,3.65,0,0,1,1-2.6,3.66,3.66,0,0,1,2.6-1H62.83a3.66,3.66,0,0,1,2.61,1,3.65,3.65,0,0,1,1,2.6v2.69A2.49,2.49,0,0,0,69,13.66H86.91a6,6,0,0,1,6,6.05Z"/><path class="cls-1" d="M48.89,20A22.87,22.87,0,0,0,32.72,59a22.65,22.65,0,0,0,16.17,6.7A22.93,22.93,0,0,0,65.07,59a22.89,22.89,0,0,0,0-32.34A22.93,22.93,0,0,0,48.89,20Zm12.64,35.6a17.94,17.94,0,0,1-25.28,0,17.76,17.76,0,0,1-5.2-12.64,18.18,18.18,0,0,1,5.2-12.64,17.78,17.78,0,0,1,12.64-5.2,18.15,18.15,0,0,1,12.64,5.2,17.77,17.77,0,0,1,5.21,12.64A17.37,17.37,0,0,1,61.53,55.58Z"/><circle class="cls-1" cx="81.98" cy="24.45" r="4.55"/></g></g></svg>