<svg xmlns="http://www.w3.org/2000/svg" viewBox="0 0 107.51 88.77"><defs><style>.cls-1{fill:#bd6b99;}</style></defs><g id="Layer_2" data-name="Layer 2"><g id="Layer_1-2" data-name="Layer 1"><path class="cls-1" d="M71,45.29a6.8,6.8,0,1,1,6.8-6.8A6.8,6.8,0,0,1,71,45.29Z"/><path class="cls-1" d="M4.74,39.83.13,76.21,33.22,88.77l39.7-19,34.59,14.61L102.84,45.6l4.48-38.21L70.57.49,33.08,7.63,0,0ZM33.35,84.91,4,73.86l2-15.9,29.22,7.39Zm3.87-2,1.55-16.65h0L59,63.63l.12-.44c0-.1,2.37-8.77,4.85-12.72a13.56,13.56,0,0,0,5.32,1.81L71,66.78Zm3.1-37.15L57.9,43.09a14.06,14.06,0,0,0,4.94,6.63c-2.3,3.67-4.38,10.79-4.9,12.67l-19,2.45ZM74.54,66.61,72.91,52.25a13.94,13.94,0,0,0,11.34-9.53l15,2.32L100.68,59c-5,.33-8.7,1.95-11.09,4.83a13.51,13.51,0,0,0-2.89,8Zm28.65,12.1L88.07,72.32a12.4,12.4,0,0,1,2.58-7.66c2.16-2.59,5.59-4,10.21-4.34Zm.19-68.43L99.66,41.49,84.88,39.2c0-.23,0-.47,0-.71a13.81,13.81,0,0,0-3-8.61l7.68-6.17L92,8.15Zm-29-5.43,16.24,3L88.3,23,81,28.84a13.89,13.89,0,0,0-8.66-4.19Zm7.74,33.64A11.15,11.15,0,1,1,71,27.35,11.15,11.15,0,0,1,82.15,38.49ZM70.57,4.13l.32.06-2.17,20.6A13.92,13.92,0,0,0,57.1,38.49c0,.37,0,.74.06,1.1L40,42.19,38.54,27.52c7.54-.35,13.17-2.67,16.72-6.95,4.14-5,4.33-11.23,4.12-14.3ZM58,6.53c.17,2.92-.07,8.66-3.8,13.16-3.3,4-8.63,6.13-15.8,6.46l-1.52-15.6ZM35.4,64,6.22,56.59,8,42.8l28.81,3.48ZM11.94,30.89l13.27,1.58L22.78,8.92l10.64,2.29,3,31.5-.31,0L8.27,39.23,4.15,4.62l17.24,4,2.27,22.3L11.83,29.52Z"/></g></g></svg>