<svg xmlns="http://www.w3.org/2000/svg" xmlns:xlink="http://www.w3.org/1999/xlink" viewBox="0 0 842.62 166.01"><defs><style>.cls-1{isolation:isolate;}.cls-2{fill:#f1793d;}.cls-3{mix-blend-mode:multiply;fill:url(#linear-gradient);}.cls-4{fill:#fff;}</style><linearGradient id="linear-gradient" x1="643.56" y1="83.15" x2="833.81" y2="83.15" gradientUnits="userSpaceOnUse"><stop offset="0.02" stop-color="#666"/><stop offset="0.11" stop-color="#a9a9a7"/><stop offset="0.17" stop-color="#c1c1bf"/><stop offset="0.25" stop-color="#d8d8d7"/><stop offset="0.34" stop-color="#e9e9e9"/><stop offset="0.44" stop-color="#f6f6f6"/><stop offset="0.58" stop-color="#fdfdfd"/><stop offset="0.89" stop-color="#fff"/></linearGradient></defs><g class="cls-1"><g id="Layer_2" data-name="Layer 2"><g id="Layer_1-2" data-name="Layer 1"><polygon class="cls-2" points="801.53 0 790.93 0 51.69 0 41.09 0 0 82.87 41.09 165.74 51.69 165.74 790.93 165.74 801.53 165.74 842.62 82.87 801.53 0"/><polygon class="cls-3" points="792.72 0.28 782.12 0.28 695.26 0.28 684.66 0.28 643.57 83.15 684.66 166.01 695.26 166.01 782.12 166.01 792.72 166.01 833.81 83.15 792.72 0.28"/><path class="cls-4" d="M769,84a5.71,5.71,0,0,0-7.86.47l-5.59,6a5.71,5.71,0,0,0-5.45-4h-10c-.76,0-1-.29-2.32-1.3a13.34,13.34,0,0,0-17.55,0l-3.67,3.23a5.65,5.65,0,0,0-5.23-.07l-4.2,2.1a1.92,1.92,0,0,0-.86,2.56L717.7,115.8a1.9,1.9,0,0,0,2.55.85l4.21-2.1a5.72,5.72,0,0,0,3.15-5.31h22.48a13.38,13.38,0,0,0,10.65-5.32l9.13-12.18A5.69,5.69,0,0,0,769,84Zm-46.24,27.19-2.5,1.25L710.54,93l2.5-1.26a1.91,1.91,0,0,1,2.56.85l8,16A1.91,1.91,0,0,1,722.75,111.15Zm44.08-21.69-9.13,12.18a9.56,9.56,0,0,1-7.61,3.8H726.28l-7.13-14.26,3.6-3.17a9.54,9.54,0,0,1,12.57,0c2.11,1.86,3.42,2.21,4.79,2.21h10a1.91,1.91,0,0,1,0,3.81h-9.72a1.9,1.9,0,1,0,0,3.8h11A5.72,5.72,0,0,0,755.54,96l8.37-9a1.91,1.91,0,0,1,2.92,2.44Z"/><path class="cls-4" d="M746.08,64.9a7.58,7.58,0,0,0,2.11-5.24,7.72,7.72,0,0,0-7.61-7.74,7.84,7.84,0,0,0-7.74,7.74A7.44,7.44,0,0,0,735,64.92,11.6,11.6,0,0,0,729,75v1.91a1.9,1.9,0,0,0,1.9,1.9h19.15a1.9,1.9,0,0,0,1.9-1.9V75A11.61,11.61,0,0,0,746.08,64.9Zm-5.5-9.17a3.92,3.92,0,0,1,3.8,3.93,3.8,3.8,0,0,1-3.8,3.8,3.92,3.92,0,0,1-3.93-3.8A4,4,0,0,1,740.58,55.73ZM732.84,75a7.84,7.84,0,0,1,7.74-7.73A7.68,7.68,0,0,1,748.19,75Z"/></g></g></g></svg>