<svg xmlns="http://www.w3.org/2000/svg" xmlns:xlink="http://www.w3.org/1999/xlink" viewBox="0 0 842.62 166.01"><defs><style>.cls-1{isolation:isolate;}.cls-2{fill:#fff;}.cls-3{mix-blend-mode:multiply;fill:url(#linear-gradient);}</style><linearGradient id="linear-gradient" x1="643.56" y1="83.15" x2="833.81" y2="83.15" gradientUnits="userSpaceOnUse"><stop offset="0.02" stop-color="#666"/><stop offset="0.11" stop-color="#a9a9a7"/><stop offset="0.17" stop-color="#c1c1bf"/><stop offset="0.25" stop-color="#d8d8d7"/><stop offset="0.34" stop-color="#e9e9e9"/><stop offset="0.44" stop-color="#f6f6f6"/><stop offset="0.58" stop-color="#fdfdfd"/><stop offset="0.89" stop-color="#fff"/></linearGradient></defs><g class="cls-1"><g id="Layer_2" data-name="Layer 2"><g id="Layer_1-2" data-name="Layer 1"><polygon class="cls-2" points="801.53 0 790.93 0 51.69 0 41.09 0 0 82.87 41.09 165.74 51.69 165.74 790.93 165.74 801.53 165.74 842.62 82.87 801.53 0"/><polygon class="cls-3" points="792.72 0.28 782.12 0.28 695.26 0.28 684.66 0.28 643.57 83.15 684.66 166.01 695.26 166.01 782.12 166.01 792.72 166.01 833.81 83.15 792.72 0.28"/><path d="M762.07,96.94a2.53,2.53,0,0,0-4.19,0l-4.83,15.76a1.08,1.08,0,0,0,0,.25c0,.8,1.17,1.36,2,1.36.55,0,1-.18,1.11-.66l1-3.33h5.74l.95,3.33c.13.48.55.66,1.1.66.88,0,2.06-.58,2.06-1.36a1.57,1.57,0,0,0-.05-.25Zm-4.29,10.82,2.18-7.69,2.19,7.69Z"/><path d="M775,81.43H751V71.18l7.79-5.56a2.34,2.34,0,0,0,0-3.81l-7.89-5.63a8.61,8.61,0,0,0-8.51-7.34H712.36a8.62,8.62,0,0,0-8.61,8.61V87.52a8.62,8.62,0,0,0,8.61,8.61h24v10.24l-7.79,5.57a2.34,2.34,0,0,0,0,3.81l7.89,5.63a8.62,8.62,0,0,0,8.51,7.33H775a8.61,8.61,0,0,0,8.6-8.6V90A8.61,8.61,0,0,0,775,81.43Zm-62.66,10a3.93,3.93,0,0,1-3.93-3.93V57.45a3.93,3.93,0,0,1,3.93-3.93h30.07a3.93,3.93,0,0,1,3.93,3.93,2.33,2.33,0,0,0,1,1.9l6.1,4.36-6.1,4.37a2.3,2.3,0,0,0-1,1.9V81.43h-1.42a8.61,8.61,0,0,0-8.61,8.6v1.42Zm66.58,28.66A3.93,3.93,0,0,1,775,124H744.94a3.93,3.93,0,0,1-3.93-3.92,2.33,2.33,0,0,0-1-1.91l-6.1-4.36,6.1-4.36a2.33,2.33,0,0,0,1-1.9V90a3.93,3.93,0,0,1,3.93-3.92H775A3.93,3.93,0,0,1,778.94,90Z"/><path d="M734.58,70.41a1.32,1.32,0,0,0,0-2.64h-5.87v-3.2a1.32,1.32,0,0,0-2.64,0v3.2H720.2a1.32,1.32,0,0,0,0,2.64H722a12.63,12.63,0,0,0,3.3,7.26,9.91,9.91,0,0,1-5.12,1.41,1.32,1.32,0,0,0,0,2.64,12.54,12.54,0,0,0,7.19-2.25,12.57,12.57,0,0,0,7.19,2.25,1.32,1.32,0,0,0,0-2.64,9.91,9.91,0,0,1-5.12-1.41,12.57,12.57,0,0,0,3.3-7.26ZM727.39,76a10,10,0,0,1-2.71-5.61h5.43A10,10,0,0,1,727.39,76Z"/></g></g></g></svg>