<svg xmlns="http://www.w3.org/2000/svg" viewBox="0 0 609 102.91"><defs><style>.cls-1{fill:#fff;}.cls-2{fill:#bd6b99;}.cls-3{fill:#41c6c6;}.cls-4{fill:#f1793d;}.cls-5{fill:#27a0d6;}.cls-6{fill:#33a582;}.cls-7{fill:#333;}</style></defs><g id="Layer_2" data-name="Layer 2"><g id="Layer_1-2" data-name="Layer 1"><path class="cls-1" d="M385.69,23.81h4.25a5.54,5.54,0,0,1,2.62.44,3.72,3.72,0,0,1,2,3.49,3.88,3.88,0,0,1-2.91,4v0a3,3,0,0,1,.33.52l3.26,6H394.2l-3.45-6.44h-4.17v6.44h-.89Zm4.84,7.27a3,3,0,0,0,3.11-3.34,3,3,0,0,0-1.7-2.81,4.71,4.71,0,0,0-2-.29h-3.32v6.44Z"/><path class="cls-1" d="M398.32,23.81h.89v9.52a4.54,4.54,0,0,0,9.08,0V23.81h.89v9.56c0,3.2-2.22,5.23-5.42,5.23s-5.44-2-5.44-5.23Z"/><path class="cls-1" d="M416.81,24.64h-5.42v-.83h11.73v.83H417.7V38.35h-.89Z"/><path class="cls-1" d="M431.71,33.33h-6.17l-1.87,5h-1l5.44-14.54h1l5.44,14.54h-.95Zm-3.1-8.48s-.31,1.12-.54,1.75l-2.22,5.9h5.55l-2.21-5.9c-.23-.63-.54-1.75-.54-1.75Z"/><path class="cls-1" d="M436.7,36.11a5.58,5.58,0,0,0,3.88,1.62,3,3,0,0,0,3.24-2.87c0-4.13-7.44-3-7.44-7.54,0-1.93,1.73-3.76,4.37-3.76a5.43,5.43,0,0,1,3.69,1.35l-.49.77a4.85,4.85,0,0,0-3.18-1.24c-2.16,0-3.45,1.45-3.45,2.86,0,3.84,7.44,2.66,7.44,7.52,0,2.1-1.62,3.78-4.22,3.78a6.19,6.19,0,0,1-4.45-1.8Z"/><path class="cls-1" d="M457.29,24.64h-5.43v-.83H463.6v.83h-5.42V38.35h-.89Z"/><path class="cls-1" d="M465.81,23.81h.89v9.52a4.54,4.54,0,0,0,9.08,0V23.81h.89v9.56c0,3.2-2.22,5.23-5.42,5.23s-5.44-2-5.44-5.23Z"/><path class="cls-1" d="M481,23.81h4.26a5.54,5.54,0,0,1,2.62.44,3.73,3.73,0,0,1,2,3.49,3.87,3.87,0,0,1-2.91,4v0a2.59,2.59,0,0,1,.34.52l3.26,6h-1.06L486,31.91h-4.17v6.44H481Zm4.84,7.27a3.05,3.05,0,0,0,3.12-3.34,3,3,0,0,0-1.71-2.81,4.65,4.65,0,0,0-2-.29h-3.32v6.44Z"/><path class="cls-1" d="M495.23,20.47h1.16l-1.64,2.3h-.92Zm-1.38,3.34h.9V38.35h-.9Z"/><path class="cls-1" d="M498.76,36.11a5.58,5.58,0,0,0,3.88,1.62,3,3,0,0,0,3.24-2.87c0-4.13-7.43-3-7.43-7.54,0-1.93,1.72-3.76,4.36-3.76a5.44,5.44,0,0,1,3.7,1.35l-.5.77a4.85,4.85,0,0,0-3.18-1.24c-2.16,0-3.45,1.45-3.45,2.86,0,3.84,7.44,2.66,7.44,7.52,0,2.1-1.62,3.78-4.22,3.78a6.15,6.15,0,0,1-4.44-1.8Z"/><path class="cls-1" d="M513.59,24.64h-5.42v-.83h11.74v.83h-5.42V38.35h-.9Z"/><path class="cls-1" d="M522.32,23.81h.89V38.35h-.89Z"/><path class="cls-1" d="M533.93,23.56a7.43,7.43,0,0,1,5.2,1.83l-.54.67A7.13,7.13,0,0,0,534,24.42,6.29,6.29,0,0,0,527.66,31,6.46,6.46,0,0,0,534,37.75a7,7,0,0,0,4.92-2l.56.62A7.65,7.65,0,0,1,534,38.6a7.33,7.33,0,0,1-7.3-7.62A7.17,7.17,0,0,1,533.93,23.56Z"/><path class="cls-1" d="M550.08,33.33h-6.17l-1.87,5h-1l5.44-14.54h1l5.44,14.54H552ZM547,24.85s-.31,1.12-.54,1.75l-2.22,5.9h5.54l-2.2-5.9c-.23-.63-.54-1.75-.54-1.75Z"/><path class="cls-1" d="M555.07,36.11A5.58,5.58,0,0,0,559,37.73a3,3,0,0,0,3.24-2.87c0-4.13-7.44-3-7.44-7.54,0-1.93,1.73-3.76,4.37-3.76a5.43,5.43,0,0,1,3.69,1.35l-.5.77a4.81,4.81,0,0,0-3.17-1.24c-2.16,0-3.45,1.45-3.45,2.86,0,3.84,7.43,2.66,7.43,7.52,0,2.1-1.62,3.78-4.21,3.78a6.19,6.19,0,0,1-4.45-1.8Z"/><path class="cls-1" d="M572.31,23.81h8v.83H573.2v6H579v.84h-5.8v6.08h7.46v.83h-8.35Z"/><path class="cls-1" d="M584.17,23.81H585l8.29,11.41c.48.66,1.19,1.82,1.19,1.82h0s-.11-1.1-.11-1.82V23.81h.9V38.35h-.83L586.19,27c-.48-.67-1.19-1.83-1.19-1.83h0s.11,1.1.11,1.83v11.4h-.9Z"/><path class="cls-1" d="M385,56h4.26a5.57,5.57,0,0,1,2.62.43,3.74,3.74,0,0,1,2,3.49,3.87,3.87,0,0,1-2.9,4v0a3.58,3.58,0,0,1,.33.52l3.26,6h-1.06l-3.45-6.44h-4.17v6.44H385Zm4.84,7.27A3.06,3.06,0,0,0,393,59.9a3,3,0,0,0-1.7-2.8,4.59,4.59,0,0,0-2-.29h-3.32v6.44Z"/><path class="cls-1" d="M397.9,56h8v.83h-7.06v6h5.8v.83h-5.8v6.09h7.46v.83H397.9Z"/><path class="cls-1" d="M416.89,65.49h-6.17l-1.87,5h-1L413.33,56h1l5.44,14.54h-1ZM413.79,57s-.31,1.12-.54,1.74L411,64.66h5.54l-2.2-5.9c-.23-.62-.54-1.74-.54-1.74Z"/><path class="cls-1" d="M422.35,56h.89V69.69h6.94v.83h-7.83Z"/><path class="cls-1" d="M432.93,56h.89V70.52h-.89Z"/><path class="cls-1" d="M438.31,56h4.57c4.32,0,7.25,2.66,7.25,7.27s-2.93,7.27-7.25,7.27h-4.57Zm4.42,13.71c3.87,0,6.46-2.27,6.46-6.44s-2.59-6.44-6.46-6.44H439.2V69.69Z"/><path class="cls-1" d="M460.75,65.49h-6.17l-1.87,5h-1L457.19,56h1l5.44,14.54h-.95ZM457.65,57s-.31,1.12-.54,1.74l-2.22,5.9h5.54l-2.2-5.9c-.23-.62-.54-1.74-.54-1.74Z"/><path class="cls-1" d="M466.21,56h4.57c4.32,0,7.25,2.66,7.25,7.27s-2.93,7.27-7.25,7.27h-4.57Zm4.43,13.71c3.86,0,6.46-2.27,6.46-6.44s-2.6-6.44-6.46-6.44h-3.53V69.69Z"/><path class="cls-1" d="M494.49,65.49h-6.17l-1.87,5h-1L490.94,56h.95l5.44,14.54h-.95ZM491.39,57s-.31,1.12-.54,1.74l-2.22,5.9h5.55l-2.2-5.9c-.23-.62-.54-1.74-.54-1.74Z"/><path class="cls-1" d="M499.62,56h.9v9.51a4.54,4.54,0,0,0,9.07,0V56h.9v9.55c0,3.2-2.23,5.24-5.42,5.24s-5.45-2-5.45-5.24Z"/><path class="cls-1" d="M515.52,56h.87l4.24,9.14c.33.7.7,1.64.7,1.64h0s.37-.94.7-1.64L526.32,56h.87l1.16,14.54h-.89l-.89-11.09c-.06-.71-.06-1.94-.06-1.94h0s-.41,1.23-.74,1.94l-3.91,8.28h-.91L517,59.43c-.31-.69-.77-2-.77-2h0s0,1.27-.06,2l-.89,11.09h-.9Z"/><path class="cls-1" d="M532.43,56h8v.83h-7.07v6h5.8v.83h-5.8v6.09h7.46v.83h-8.35Z"/><path class="cls-1" d="M544.3,56h.83l8.28,11.4c.48.67,1.19,1.83,1.19,1.83h0s-.1-1.1-.1-1.83V56h.89V70.52h-.83l-8.29-11.41c-.48-.66-1.18-1.82-1.18-1.82h0s.11,1.1.11,1.82V70.52h-.89Z"/><path class="cls-1" d="M563.26,56.81h-5.42V56h11.74v.83h-5.42V70.52h-.9Z"/><path class="cls-1" d="M578.16,65.49H572l-1.87,5h-1L574.61,56h.95L581,70.52h-1ZM575.07,57s-.32,1.12-.54,1.74l-2.23,5.9h5.55l-2.2-5.9c-.23-.62-.54-1.74-.54-1.74Z"/><path class="cls-1" d="M583.63,56h4.57c4.32,0,7.25,2.66,7.25,7.27s-2.93,7.27-7.25,7.27h-4.57Zm4.42,13.71c3.86,0,6.46-2.27,6.46-6.44s-2.6-6.44-6.46-6.44h-3.53V69.69Z"/><path class="cls-1" d="M606.07,65.49H599.9l-1.87,5h-1L602.51,56h1l5.44,14.54H608ZM603,57s-.31,1.12-.54,1.74l-2.22,5.9h5.54l-2.2-5.9C603.32,58.14,603,57,603,57Z"/><polygon class="cls-2" points="69.21 39.08 70.12 38.16 77.64 30.65 78.55 29.73 74.94 19.01 64.22 15.4 63.3 16.31 55.79 23.83 54.87 24.74 58.48 35.47 69.21 39.08"/><polygon class="cls-3" points="41.76 66.52 42.68 65.6 50.19 58.09 51.11 57.17 47.5 46.45 36.78 42.84 35.86 43.76 28.35 51.27 27.43 52.19 31.04 62.91 41.76 66.52"/><polygon class="cls-1" points="26.52 51.27 27.44 50.36 34.95 42.84 35.87 41.93 32.25 31.21 21.53 27.59 20.61 28.51 13.1 36.02 12.18 36.94 15.8 47.66 26.52 51.27"/><polygon class="cls-4" points="63.21 60.42 64.13 59.51 71.64 51.99 72.56 51.08 68.94 40.35 58.22 36.74 57.3 37.66 49.79 45.17 48.88 46.09 52.49 56.81 63.21 60.42"/><polygon class="cls-1" points="54.31 23.68 55.23 22.76 62.74 15.25 63.66 14.33 60.05 3.61 49.33 0 48.41 0.92 40.9 8.43 39.98 9.35 43.59 20.07 54.31 23.68"/><polygon class="cls-5" points="20.52 72.52 21.44 71.6 28.95 64.09 29.87 63.17 26.25 52.45 15.53 48.84 14.62 49.75 7.11 57.27 6.19 58.18 9.8 68.9 20.52 72.52"/><polygon class="cls-4" points="14.33 93.79 15.25 92.87 22.76 85.36 23.68 84.44 20.07 73.72 9.35 70.11 8.43 71.02 0.92 78.54 0 79.45 3.61 90.17 14.33 93.79"/><polygon class="cls-6" points="78.56 75.46 79.47 74.55 86.99 67.03 87.9 66.12 84.29 55.4 73.57 51.78 72.65 52.7 65.14 60.21 64.22 61.13 67.83 71.85 78.56 75.46"/><polygon class="cls-5" points="93.97 90.88 94.89 89.96 102.4 82.45 103.32 81.53 99.71 70.81 88.98 67.2 88.07 68.12 80.56 75.63 79.64 76.55 83.25 87.27 93.97 90.88"/><polygon class="cls-1" points="51.38 102.91 52.3 101.99 59.81 94.48 60.73 93.56 57.12 82.84 46.4 79.23 45.48 80.14 37.97 87.66 37.05 88.57 40.66 99.3 51.38 102.91"/><rect class="cls-4" x="385.51" y="45.67" width="59.37" height="3.56"/><rect class="cls-6" x="571.32" y="45.67" width="25.53" height="3.56"/><rect class="cls-3" x="452" y="45.67" width="112.2" height="3.56"/><rect class="cls-1" x="486.11" y="75.54" width="122.89" height="3.56"/><rect class="cls-5" x="384.01" y="75.54" width="94.39" height="3.56"/><path class="cls-1" d="M159.55,59.78H140.61l-5,14.46h-7.27L146.45,24h7.41L172,74.24h-7.34Zm-9.47-28.93s-1.14,4.56-2,7.13l-5.63,16H157.7l-5.55-16c-.86-2.57-1.93-7.13-1.93-7.13Z"/><path class="cls-1" d="M201.37,23.09c12,0,18.31,6.06,18.31,6.06l-3.56,5.27a23.15,23.15,0,0,0-14.18-4.92C190.12,29.5,183,38.12,183,48.88c0,11.68,8,19.73,18.52,19.73,8.69,0,14.25-6.27,14.25-6.27V55.08h-8.19V49h14.6V74.24H216V71.1c0-1.07.07-2.13.07-2.13h-.15a21.65,21.65,0,0,1-15.45,6.12c-13.54,0-24.72-10.68-24.72-26.07C175.73,34.49,186.7,23.09,201.37,23.09Z"/><path class="cls-1" d="M232.5,24h7.06V56.43c0,7.69,5,12.18,12.68,12.18s12.82-4.49,12.82-12.32V24h7.05V56.43c0,11.18-8.05,18.66-19.8,18.66S232.5,67.61,232.5,56.43Z"/><path class="cls-1" d="M285.08,24h7.05V68.11h22.51v6.13H285.08Z"/><path class="cls-1" d="M343.92,23.09a25.35,25.35,0,0,1,25.79,25.65c0,14.81-11.26,26.35-25.79,26.35s-25.86-11.54-25.86-26.35A25.41,25.41,0,0,1,343.92,23.09Z"/><circle class="cls-1" cx="343.68" cy="48.96" r="24.04"/><polygon class="cls-7" points="347.89 67.65 349.36 66.18 361.37 54.18 362.83 52.71 357.06 35.57 339.92 29.8 338.45 31.26 326.45 43.27 324.98 44.74 330.76 61.88 347.89 67.65"/></g></g></svg>