<svg xmlns="http://www.w3.org/2000/svg" xmlns:xlink="http://www.w3.org/1999/xlink" viewBox="0 0 1005.21 221.54"><defs><style>.cls-1{isolation:isolate;}.cls-2{fill:#27a0d6;}.cls-3{mix-blend-mode:multiply;fill:url(#linear-gradient);}.cls-4{fill:none;stroke:#fff;stroke-miterlimit:10;stroke-width:3.37px;fill-rule:evenodd;}</style><linearGradient id="linear-gradient" x1="739.39" y1="110.66" x2="993.45" y2="110.66" gradientUnits="userSpaceOnUse"><stop offset="0.02" stop-color="#666"/><stop offset="0.11" stop-color="#a9a9a7"/><stop offset="0.17" stop-color="#c1c1bf"/><stop offset="0.25" stop-color="#d8d8d7"/><stop offset="0.34" stop-color="#e9e9e9"/><stop offset="0.44" stop-color="#f6f6f6"/><stop offset="0.58" stop-color="#fdfdfd"/><stop offset="0.89" stop-color="#fff"/></linearGradient></defs><g class="cls-1"><g id="Layer_2" data-name="Layer 2"><g id="Layer_1-2" data-name="Layer 1"><polygon class="cls-2" points="950.34 0.21 936.18 0.21 0 0.21 0 0.21 0 110.87 0 221.54 0 221.54 936.18 221.54 950.34 221.54 1005.21 110.87 950.34 0.21"/><polygon class="cls-3" points="938.57 0 924.42 0 808.42 0 794.26 0 739.39 110.66 794.26 221.33 808.42 221.33 924.42 221.33 938.57 221.33 993.45 110.66 938.57 0"/><path class="cls-4" d="M845.49,88.77l-.29-5.88c4.15-.48,12.29-1.29,16.45-1.65,1.18-.09,2.57-.37,3.75-.5a28.94,28.94,0,0,0,3.26-.26c.11-3.63-.21-7.28,3.29-9.7,3.15-.75,6.26-1,8.51,2.75.25,1.43.56,3.23.9,5.25a14.68,14.68,0,0,0,3.94-.22,48.14,48.14,0,0,1,5.45-.83c3.87-.46,7.74-.83,11.6-1.28,2-.26,4-.63,6-.92a4.5,4.5,0,0,1,2-.11c3.44,1.4,8.86,6.24,8.86,6.24L911,90.12c-4.76.21-14.32,1.29-19.07,1.66l-.88,0c-3.2.18-6.41.37-9.56.57a45.84,45.84,0,0,0-.12,11.93c1.53.3,3.11.68,4.72.91,5.86.86,11.74,1.57,17.59,2.51l-.2,5.22-.15,6.18-1.77,0a35.71,35.71,0,0,0-4.88-.79q-6.63-.9-13.28-1.78a19.57,19.57,0,0,0-2.33,0c0,5.17,0,10.23,0,15.31v30.5c-4.12.15-8,.06-11.77.08-.2-.22-.28-.28-.33-.35s-.15-.17-.15-.24c0-15.57,0-31.16,0-47-1.58-.24-3-.49-4.39-.68-2.6-.36-5.21-.7-7.8-1-1.82-.23-3.66-.47-5.49-.69-3.38-.4-6.86-.87-10.22-1.36l-3.57-.37-3.23-3.13-4-4.59s2.81-2.54,4.29-3.58L838,96.73l5.44,1,1,.18,8.29,1.47s10.45,1.8,15.83,3.21a87.7,87.7,0,0,0,0-9.45,48.54,48.54,0,0,0-5,0c-3.39.33-6.75.86-10.12,1.23-1.8.2-5.4.27-5.4.27l-2.29-.18Z"/></g></g></g></svg>