<svg xmlns="http://www.w3.org/2000/svg" xmlns:xlink="http://www.w3.org/1999/xlink" viewBox="0 0 1005.21 221.7"><defs><style>.cls-1{isolation:isolate;}.cls-2{fill:#f1793d;}.cls-3{mix-blend-mode:multiply;fill:url(#linear-gradient);}.cls-4{fill:#fff;}</style><linearGradient id="linear-gradient" x1="739.39" y1="111.03" x2="993.45" y2="111.03" gradientUnits="userSpaceOnUse"><stop offset="0.02" stop-color="#666"/><stop offset="0.11" stop-color="#a9a9a7"/><stop offset="0.17" stop-color="#c1c1bf"/><stop offset="0.25" stop-color="#d8d8d7"/><stop offset="0.34" stop-color="#e9e9e9"/><stop offset="0.44" stop-color="#f6f6f6"/><stop offset="0.58" stop-color="#fdfdfd"/><stop offset="0.89" stop-color="#fff"/></linearGradient></defs><g class="cls-1"><g id="Layer_2" data-name="Layer 2"><g id="Layer_1-2" data-name="Layer 1"><polygon class="cls-2" points="950.34 0 936.18 0 0 0 0 0 0 110.66 0 221.33 0 221.33 936.18 221.33 950.34 221.33 1005.21 110.66 950.34 0"/><polygon class="cls-3" points="938.57 0.37 924.42 0.37 808.42 0.37 794.26 0.37 739.39 111.03 794.26 221.7 808.42 221.7 924.42 221.7 938.57 221.7 993.45 111.03 938.57 0.37"/><path class="cls-4" d="M907.88,114.12a7.62,7.62,0,0,0-10.49.63l-7.47,8a7.63,7.63,0,0,0-7.28-5.36H869.32c-1,0-1.35-.38-3.11-1.74a17.82,17.82,0,0,0-23.43.06l-4.9,4.31a7.61,7.61,0,0,0-7-.09l-5.62,2.81a2.55,2.55,0,0,0-1.14,3.41l15.25,30.48a2.53,2.53,0,0,0,3.41,1.14l5.61-2.81a7.61,7.61,0,0,0,4.21-7.08h30a17.86,17.86,0,0,0,14.23-7.12l12.19-16.26A7.59,7.59,0,0,0,907.88,114.12Zm-61.74,36.31-3.34,1.67-13-25.94,3.35-1.67a2.54,2.54,0,0,1,3.41,1.13l10.7,21.4A2.56,2.56,0,0,1,846.14,150.43Zm58.86-29-12.2,16.26a12.73,12.73,0,0,1-10.16,5.09H850.85l-9.52-19,4.81-4.24a12.73,12.73,0,0,1,16.78,0c2.82,2.48,4.57,3,6.4,3h13.32a2.54,2.54,0,0,1,0,5.08h-13a2.54,2.54,0,1,0,0,5.08h14.67a7.66,7.66,0,0,0,5.58-2.42l11.18-12a2.54,2.54,0,0,1,3.9,3.25Z"/><path class="cls-4" d="M877.29,88.67a10.11,10.11,0,0,0,2.81-7,10.3,10.3,0,0,0-10.16-10.33,10.47,10.47,0,0,0-10.33,10.33,10,10,0,0,0,2.9,7,15.52,15.52,0,0,0-8,13.47v2.54a2.54,2.54,0,0,0,2.54,2.54h25.57a2.54,2.54,0,0,0,2.54-2.54v-2.54A15.49,15.49,0,0,0,877.29,88.67Zm-7.35-12.25A5.24,5.24,0,0,1,875,81.67a5.09,5.09,0,0,1-5.08,5.08,5.24,5.24,0,0,1-5.25-5.08A5.38,5.38,0,0,1,869.94,76.42Zm-10.33,25.74a10.47,10.47,0,0,1,10.33-10.33,10.26,10.26,0,0,1,10.16,10.33Z"/></g></g></g></svg>