<svg xmlns="http://www.w3.org/2000/svg" xmlns:xlink="http://www.w3.org/1999/xlink" viewBox="0 0 842.62 165.89"><defs><style>.cls-1{isolation:isolate;}.cls-2{fill:#27a0d6;}.cls-3{mix-blend-mode:multiply;fill:url(#linear-gradient);}.cls-4{fill:none;stroke:#fff;stroke-miterlimit:10;stroke-width:2.53px;fill-rule:evenodd;}</style><linearGradient id="linear-gradient" x1="643.56" y1="82.87" x2="833.81" y2="82.87" gradientUnits="userSpaceOnUse"><stop offset="0.02" stop-color="#666"/><stop offset="0.11" stop-color="#a9a9a7"/><stop offset="0.17" stop-color="#c1c1bf"/><stop offset="0.25" stop-color="#d8d8d7"/><stop offset="0.34" stop-color="#e9e9e9"/><stop offset="0.44" stop-color="#f6f6f6"/><stop offset="0.58" stop-color="#fdfdfd"/><stop offset="0.89" stop-color="#fff"/></linearGradient></defs><g class="cls-1"><g id="Layer_2" data-name="Layer 2"><g id="Layer_1-2" data-name="Layer 1"><polygon class="cls-2" points="801.53 0.16 790.93 0.16 51.69 0.16 41.09 0.16 0 83.03 41.09 165.9 51.69 165.9 790.93 165.9 801.53 165.9 842.62 83.03 801.53 0.16"/><polygon class="cls-3" points="792.72 0 782.12 0 695.26 0 684.66 0 643.57 82.87 684.66 165.74 695.26 165.74 782.12 165.74 792.72 165.74 833.81 82.87 792.72 0"/><path class="cls-4" d="M723,66.48l-.21-4.41c3.11-.36,9.21-1,12.32-1.24.88-.06,1.92-.28,2.8-.37a23.45,23.45,0,0,0,2.45-.19c.08-2.72-.16-5.46,2.46-7.27,2.36-.56,4.69-.77,6.38,2.06.18,1.08.41,2.42.67,3.93a11,11,0,0,0,3-.16,34.92,34.92,0,0,1,4.08-.62c2.89-.35,5.8-.62,8.69-1,1.51-.19,3-.47,4.52-.69a3.27,3.27,0,0,1,1.51-.08c2.57,1,6.63,4.67,6.63,4.67l-6.17,6.33c-3.56.17-10.72,1-14.27,1.25-.22,0-.44,0-.66,0-2.4.13-4.8.27-7.16.42a34,34,0,0,0-.09,8.94c1.14.22,2.33.51,3.53.68,4.39.64,8.8,1.18,13.18,1.88l-.16,3.91-.11,4.63-1.32,0a26.09,26.09,0,0,0-3.66-.59q-5-.69-9.94-1.33a13.87,13.87,0,0,0-1.75,0c0,3.88,0,7.67,0,11.47v22.84c-3.08.11-6,0-8.81.06l-.24-.26c0-.06-.12-.13-.12-.19,0-11.66,0-23.33,0-35.2-1.18-.17-2.23-.37-3.29-.5-1.94-.28-3.89-.53-5.84-.77-1.36-.18-2.74-.36-4.11-.52-2.53-.31-5.13-.65-7.65-1l-2.67-.28-2.42-2.34-3-3.44s2.11-1.9,3.21-2.68l2.68-2,4.07.71.79.14,6.21,1.1s7.82,1.34,11.85,2.4a66.77,66.77,0,0,0,0-7.07,35.63,35.63,0,0,0-3.74,0c-2.54.24-5.06.64-7.58.92-1.34.14-4,.2-4,.2l-1.71-.14Z"/></g></g></g></svg>