<svg xmlns="http://www.w3.org/2000/svg" xmlns:xlink="http://www.w3.org/1999/xlink" viewBox="0 0 1005.62 221.75"><defs><style>.cls-1{isolation:isolate;}.cls-2{fill:#27a0d6;}.cls-3{mix-blend-mode:multiply;fill:url(#linear-gradient);}.cls-4{fill:#fff;fill-rule:evenodd;}</style><linearGradient id="linear-gradient" x1="739.8" y1="110.66" x2="993.86" y2="110.66" gradientUnits="userSpaceOnUse"><stop offset="0.02" stop-color="#666"/><stop offset="0.11" stop-color="#a9a9a7"/><stop offset="0.17" stop-color="#c1c1bf"/><stop offset="0.25" stop-color="#d8d8d7"/><stop offset="0.34" stop-color="#e9e9e9"/><stop offset="0.44" stop-color="#f6f6f6"/><stop offset="0.58" stop-color="#fdfdfd"/><stop offset="0.89" stop-color="#fff"/></linearGradient></defs><g class="cls-1"><g id="Layer_2" data-name="Layer 2"><g id="Layer_1-2" data-name="Layer 1"><polygon class="cls-2" points="950.75 0.42 936.59 0.42 0 0.42 0 0.42 0 111.08 0 221.75 0 221.75 936.59 221.75 950.75 221.75 1005.62 111.08 950.75 0.42"/><polygon class="cls-3" points="938.98 0 924.83 0 808.83 0 794.67 0 739.8 110.66 794.67 221.33 808.83 221.33 924.83 221.33 938.98 221.33 993.86 110.66 938.98 0"/><path class="cls-4" d="M844.28,140.73c-.13-1.12-.22-1.93-.33-2.86l1.54-.75-.87-2.55.24-.13.29.32h5.72c.15-.67.25-1.18.28-1.31.76-.94,1.31-1.63,1.93-2.38l-.6-.55a11.91,11.91,0,0,0,.4-2.09c0-3.92,0-7.85,0-11.75,0-5.08,0-10.16,0-15.23,0-1.61-.07-3.08-1.72-3.71-.09-.63-.17-1.07-.26-1.64H846.4c-.74-1-.21-2.08-.54-3.18l-2.56-.3a7.54,7.54,0,0,1,1.08-1.14q11.54-7.91,23.09-15.75l9.47-6.47,34,23.3c-1.3.13-2.1.21-3,.32,0,1-.09,1.94-.16,3.12H903c-.12.53-.24,1-.38,1.62a3,3,0,0,0-1.7,3.11q0,14.3,0,28.58c0,.15.07.29.13.61l1.86.29a.9.9,0,0,1,0,.18l-2.13.26c.34.65.58,1.16.88,1.63.1.17.49.17.56.35,1.05,2.13,3,2.09,4.92,2a1.94,1.94,0,0,1,.56.23c0,.66.1,1.41.16,2.25l1.22.56v2.66a1.63,1.63,0,0,1-.21.19.37.37,0,0,1-.19.09q-21.21.06-42.41.09C859,140.74,851.75,140.73,844.28,140.73ZM894,99.33c-.81-1.28-1.36-2.16-1.94-3.1-2.23-.33-28.73-.26-30.18,0l-1.91,3c-.33,7-.18,27.66.19,29.29L859.5,130c.21.69.43,1.33.61,1.91l1.25.87c.14.78.22,1.26.32,1.81h6a39.74,39.74,0,0,0,5.88-.06c1.84-.25,3.81.88,5.49-.47.94,1.07,2.16.42,3.23.51s2.25-.13,3.37-.12,2.38.41,3.4.08,2.23.42,3.36-.07c.06-.47.13-.91.19-1.39l1.33-1.47Zm-17-21.88c-5.71,3.64-11.32,7.24-17.28,11h34.55ZM847.68,94.18c5.3.58,56.79.43,58.61,0ZM854,129.73h.17V101.31H854Zm45.63.09h.18V101.31h-.18Zm-1.4-.47.18,0v-28h-.18Zm-1.16-28-.16.07v27.9h.16Zm-41.44,0-.19,0v28.05h.19Zm2.54,26.1.18,0V101.3h-.18Zm-1.4-.85c.5-4.37.39-23.63,0-25.47Z"/><path class="cls-4" d="M847.68,94.18h58.61C904.47,94.61,853,94.76,847.68,94.18Z"/></g></g></g></svg>