<svg xmlns="http://www.w3.org/2000/svg" xmlns:xlink="http://www.w3.org/1999/xlink" viewBox="0 0 1005.62 221.54"><defs><style>.cls-1{isolation:isolate;}.cls-2{fill:#27a0d6;}.cls-3{mix-blend-mode:multiply;fill:url(#linear-gradient);}.cls-4{fill:#fff;fill-rule:evenodd;}</style><linearGradient id="linear-gradient" x1="739.8" y1="110.66" x2="993.86" y2="110.66" gradientUnits="userSpaceOnUse"><stop offset="0.02" stop-color="#666"/><stop offset="0.11" stop-color="#a9a9a7"/><stop offset="0.17" stop-color="#c1c1bf"/><stop offset="0.25" stop-color="#d8d8d7"/><stop offset="0.34" stop-color="#e9e9e9"/><stop offset="0.44" stop-color="#f6f6f6"/><stop offset="0.58" stop-color="#fdfdfd"/><stop offset="0.89" stop-color="#fff"/></linearGradient></defs><g class="cls-1"><g id="Layer_2" data-name="Layer 2"><g id="Layer_1-2" data-name="Layer 1"><polygon class="cls-2" points="950.75 0.21 936.59 0.21 0 0.21 0 0.21 0 110.87 0 221.54 0 221.54 936.59 221.54 950.75 221.54 1005.62 110.87 950.75 0.21"/><polygon class="cls-3" points="938.98 0 924.83 0 808.83 0 794.67 0 739.8 110.66 794.67 221.33 808.83 221.33 924.83 221.33 938.98 221.33 993.86 110.66 938.98 0"/><path class="cls-4" d="M900.91,121.34H890.08c1.33-6.48,5.74-11.59,11.27-12.79a2.1,2.1,0,0,0,1.47-2.89c-2.13-4.82-10.37-6.86-15.28-7.67V95.66a10.56,10.56,0,0,0,4.06-8,8,8,0,0,0,0-12.52A10.65,10.65,0,0,0,881,64.86H874.1a10.65,10.65,0,0,0-10.63,10.28,8,8,0,0,0,0,12.52,10.57,10.57,0,0,0,4.07,8V98c-4.91.81-13.15,2.85-15.29,7.67a2.1,2.1,0,0,0,1.47,2.89c5.53,1.2,9.94,6.31,11.28,12.79H854.16a2.09,2.09,0,0,0-2.09,2.09v46.38a2.1,2.1,0,0,0,2.09,2.09h46.75a2.1,2.1,0,0,0,2.09-2.09V123.43A2.09,2.09,0,0,0,900.91,121.34Zm-36.12-10.29a18.71,18.71,0,0,0-6.94-5.51c2.19-1.46,6.23-2.92,12-3.67a2.08,2.08,0,0,0,1.83-2.07V94.57a2.12,2.12,0,0,0-1-1.78,6.41,6.41,0,0,1-3.08-5.49v-.9a2.09,2.09,0,0,0-1.4-2,3.68,3.68,0,0,1,0-6.06,2.08,2.08,0,0,0,1.4-2v-.9A6.46,6.46,0,0,1,874.1,69H881a6.47,6.47,0,0,1,6.46,6.46v.9a2.08,2.08,0,0,0,1.39,2,3.68,3.68,0,0,1,0,6.06,2.09,2.09,0,0,0-1.39,2v.9a6.41,6.41,0,0,1-3.08,5.49,2.1,2.1,0,0,0-1,1.78V99.8a2.08,2.08,0,0,0,1.82,2.07c5.82.75,9.86,2.21,12,3.67a18.68,18.68,0,0,0-6.93,5.51,22.56,22.56,0,0,0-4.47,10.29H869.26A22.67,22.67,0,0,0,864.79,111.05Zm34,56.67H856.26v-42.2h42.56v42.2Z"/><path class="cls-4" d="M883.81,132.23a2.09,2.09,0,0,0,2.09,2.09H890v24.6h-25v-24.6h4.13a2.09,2.09,0,1,0,0-4.18H863a2.09,2.09,0,0,0-2.09,2.09V161A2.09,2.09,0,0,0,863,163.1h29.15A2.08,2.08,0,0,0,894.2,161V132.23a2.08,2.08,0,0,0-2.09-2.09H885.9A2.08,2.08,0,0,0,883.81,132.23Z"/><path class="cls-4" d="M877.54,134.32a2.09,2.09,0,1,0-2.09-2.09A2.1,2.1,0,0,0,877.54,134.32Z"/></g></g></g></svg>