<svg xmlns="http://www.w3.org/2000/svg" xmlns:xlink="http://www.w3.org/1999/xlink" viewBox="0 0 1005.21 221.75"><defs><style>.cls-1{isolation:isolate;}.cls-2{fill:#41c6c6;}.cls-3{mix-blend-mode:multiply;fill:url(#linear-gradient);}.cls-4{fill:#fff;}</style><linearGradient id="linear-gradient" x1="739.39" y1="110.66" x2="993.45" y2="110.66" gradientUnits="userSpaceOnUse"><stop offset="0.02" stop-color="#666"/><stop offset="0.11" stop-color="#a9a9a7"/><stop offset="0.17" stop-color="#c1c1bf"/><stop offset="0.25" stop-color="#d8d8d7"/><stop offset="0.34" stop-color="#e9e9e9"/><stop offset="0.44" stop-color="#f6f6f6"/><stop offset="0.58" stop-color="#fdfdfd"/><stop offset="0.89" stop-color="#fff"/></linearGradient></defs><g class="cls-1"><g id="Layer_2" data-name="Layer 2"><g id="Layer_1-2" data-name="Layer 1"><polygon class="cls-2" points="950.34 0.42 936.18 0.42 0 0.42 0 0.42 0 111.08 0 221.75 0 221.75 936.18 221.75 950.34 221.75 1005.21 111.08 950.34 0.42"/><polygon class="cls-3" points="938.57 0 924.42 0 808.42 0 794.26 0 739.39 110.66 794.26 221.33 808.42 221.33 924.42 221.33 938.57 221.33 993.45 110.66 938.57 0"/><path class="cls-4" d="M831.93,87.33a14.21,14.21,0,0,0,12.79-20.48A10.5,10.5,0,0,1,863.63,71a8.5,8.5,0,0,0-1,.61,14,14,0,0,0-7.26-2.09h-.3v3.56h.3a10.48,10.48,0,0,1,4.6,1.09c-.15.2-.31.38-.44.58l-.6.9,3,2,.6-.9a8.19,8.19,0,0,1,6.83-3.65,3.56,3.56,0,0,1,0,7.12H856.86a3.57,3.57,0,0,1-3.56-3.56h-3.56a7.12,7.12,0,0,0,7.12,7.12h44.52a7.12,7.12,0,1,0,0-14.24,11.27,11.27,0,0,0-2.47.28A15.76,15.76,0,0,0,869.4,68.4l-.5,1.15a12.9,12.9,0,0,0-1.87.22,14.06,14.06,0,0,0-24.38-6,14.23,14.23,0,1,0-10.72,23.59Zm52-24.93a12.19,12.19,0,0,1,11.64,8.69c-.29.16-.57.33-.85.52a14.06,14.06,0,0,0-7.25-2.08h-.31v3.56h.31A10.43,10.43,0,0,1,892,74.18c-.15.2-.3.38-.44.58l-.6.9,3,2,.6-.9a8.19,8.19,0,0,1,6.83-3.65,3.56,3.56,0,1,1,0,7.12H875.46a7,7,0,0,0-3-9.92l.21-.48A12.2,12.2,0,0,1,883.9,62.4Zm-52,0a10.69,10.69,0,1,1-10.68,10.69A10.71,10.71,0,0,1,831.93,62.4Z"/><path class="cls-4" d="M917.4,123v-8l7.13-5.34v-4.45H921v2.67l-3.57,2.67v-8.9h-3.56V114l-3.56-2.67V108.7h-3.56v4.45l7.12,5.35V123H896V111.37l7.12-5.34v-4.45H899.6v2.67L896,106.92V98.75l3-3-2.52-2.52-4.09,4.08v13.2l-3.56-2.67v-2.67h-3.56v4.45l7.12,5.34v8H867.55v-2.28l.88-.29A14.34,14.34,0,0,0,874,96.64l-8.27-8.26L859,95.19a14.36,14.36,0,0,0-2.72-3.89L848,83l-8.27,8.27a14.33,14.33,0,0,0,5.6,23.73l.89.3V123h-29l.87,3.49a56.52,56.52,0,0,0,109.66,0l.87-3.49Zm-48.72,11.14,2,3.06a2.31,2.31,0,0,1-1.93,3.6H841.37a2.31,2.31,0,0,1-1.93-3.6l2-3.06a6.68,6.68,0,0,0-.08-7.58h27.36a6.73,6.73,0,0,0-.08,7.58Zm-2.92-40.68,5.75,5.75a10.75,10.75,0,0,1-4,17.73v-2.11l4.82-4.82-2.52-2.52-2.3,2.31v-3.87l3-3-2.51-2.52L864,104.4v12.49a10.76,10.76,0,0,1-4-17.73Zm-26.71,8a10.68,10.68,0,0,1,3.16-7.62L848,88.07l5.75,5.75A10.9,10.9,0,0,1,856.29,98a14.22,14.22,0,0,0-3,8.74,14.08,14.08,0,0,0,.22,2.43,10.93,10.93,0,0,1-3.78,2.35V100.34l3.26-4.9-3-2L847.68,97l-2-2-2.51,2.52,3,3v3.86l-2.31-2.3-2.51,2.52,4.82,4.82v2.11a10.74,10.74,0,0,1-7.13-10.11Zm10.69,13.89.88-.3a14.41,14.41,0,0,0,4.06-2.16,14.28,14.28,0,0,0,8.42,7.5l.88.3V123H849.74Zm-13.2,11.18,1.58,1.58a3.25,3.25,0,0,1,.93,2.26,3.14,3.14,0,0,1-.53,1.76l-2,3.06a5.88,5.88,0,0,0,4.89,9.15h27.42a5.88,5.88,0,0,0,4.89-9.15l-2-3a3.19,3.19,0,0,1-.53-1.77,3.23,3.23,0,0,1,.93-2.26l1.58-1.58H885.8a5.64,5.64,0,0,0-.45,2.22,5.76,5.76,0,0,0,4.38,5.6l7.52,1.88a3.11,3.11,0,0,1,.4,5.9l-11.18,4.47a7.45,7.45,0,0,0-.93,13.38l4.84,2.76a52.77,52.77,0,0,1-17,2.94l-9-6a.79.79,0,0,1,.31-1.44l6.12-1a4.67,4.67,0,0,0-.77-9.28H833.3a52.86,52.86,0,0,1-11.55-21.37Zm25.82,36.08,4,2.65a52.85,52.85,0,0,1-29.57-13.8H870a1.11,1.11,0,0,1,.18,2.21l-6.12,1a4.36,4.36,0,0,0-1.7,7.92ZM894.6,161l-7.29-4.16a3.9,3.9,0,0,1-2-3.38,3.86,3.86,0,0,1,2.45-3.6L899,145.42a6.67,6.67,0,0,0-.86-12.66l-7.51-1.88a2.22,2.22,0,0,1,.53-4.37H924A52.84,52.84,0,0,1,894.6,161Z"/><path class="cls-4" d="M881.79,87.33h3.56v3.56h-3.56Z"/><path class="cls-4" d="M885.35,94.46h3.56V98h-3.56Z"/><path class="cls-4" d="M892.47,87.33H896v3.56h-3.57Z"/><path class="cls-4" d="M899.6,90.89h3.56v3.57H899.6Z"/><path class="cls-4" d="M906.72,98h3.56v3.56h-3.56Z"/><path class="cls-4" d="M906.72,87.33h3.56v3.56h-3.56Z"/></g></g></g></svg>