<svg xmlns="http://www.w3.org/2000/svg" xmlns:xlink="http://www.w3.org/1999/xlink" viewBox="0 0 1005.62 221.33"><defs><style>.cls-1{isolation:isolate;}.cls-2{fill:#27a0d6;}.cls-3{mix-blend-mode:multiply;fill:url(#linear-gradient);}.cls-4{fill:none;stroke:#fff;stroke-miterlimit:10;stroke-width:3.37px;fill-rule:evenodd;}</style><linearGradient id="linear-gradient" x1="739.8" y1="110.66" x2="993.86" y2="110.66" gradientUnits="userSpaceOnUse"><stop offset="0.02" stop-color="#666"/><stop offset="0.11" stop-color="#a9a9a7"/><stop offset="0.17" stop-color="#c1c1bf"/><stop offset="0.25" stop-color="#d8d8d7"/><stop offset="0.34" stop-color="#e9e9e9"/><stop offset="0.44" stop-color="#f6f6f6"/><stop offset="0.58" stop-color="#fdfdfd"/><stop offset="0.89" stop-color="#fff"/></linearGradient></defs><g class="cls-1"><g id="Layer_2" data-name="Layer 2"><g id="Layer_1-2" data-name="Layer 1"><polygon class="cls-2" points="950.75 0 936.59 0 0 0 0 0 0 110.66 0 221.33 0 221.33 936.59 221.33 950.75 221.33 1005.62 110.66 950.75 0"/><polygon class="cls-3" points="938.98 0 924.83 0 808.83 0 794.67 0 739.8 110.66 794.67 221.33 808.83 221.33 924.83 221.33 938.98 221.33 993.86 110.66 938.98 0"/><path class="cls-4" d="M845.9,83.2l-.29-5.89c4.15-.48,12.29-1.28,16.45-1.65,1.18-.09,2.57-.37,3.75-.5a31.19,31.19,0,0,0,3.26-.25c.11-3.63-.21-7.29,3.29-9.7,3.15-.76,6.26-1,8.52,2.75.24,1.43.55,3.22.89,5.24a14.29,14.29,0,0,0,3.94-.22,50.47,50.47,0,0,1,5.45-.82c3.87-.46,7.74-.83,11.6-1.29,2-.25,4-.62,6-.91a4.36,4.36,0,0,1,2-.11c3.44,1.39,8.86,6.23,8.86,6.23l-8.23,8.46c-4.76.22-14.32,1.3-19.07,1.67l-.88,0c-3.2.19-6.4.37-9.56.57a45.93,45.93,0,0,0-.12,11.94c1.53.3,3.11.68,4.72.9,5.86.86,11.74,1.57,17.59,2.51l-.2,5.23-.15,6.18-1.76,0a36.11,36.11,0,0,0-4.89-.79q-6.63-.91-13.28-1.78a19.26,19.26,0,0,0-2.33,0c0,5.17,0,10.24,0,15.32v30.5c-4.12.14-8,0-11.77.07a4.14,4.14,0,0,1-.32-.35c-.06-.07-.16-.16-.16-.24,0-15.57,0-31.15,0-47-1.58-.23-3-.49-4.39-.67-2.6-.37-5.2-.7-7.8-1-1.82-.24-3.66-.48-5.49-.7-3.38-.4-6.86-.86-10.22-1.35l-3.57-.37-3.22-3.14-4-4.58s2.81-2.55,4.29-3.58l3.57-2.73,5.44,1,1,.19,8.29,1.46S863.64,95.56,869,97a87.51,87.51,0,0,0,.05-9.44c-1.74,0-3.38-.13-5,0-3.39.34-6.75.86-10.12,1.23-1.8.2-5.4.28-5.4.28l-2.28-.19Z"/></g></g></g></svg>