<svg xmlns="http://www.w3.org/2000/svg" xmlns:xlink="http://www.w3.org/1999/xlink" viewBox="0 0 842.62 166.05"><defs><style>.cls-1{isolation:isolate;}.cls-2{fill:#41c6c6;}.cls-3{mix-blend-mode:multiply;fill:url(#linear-gradient);}.cls-4{fill:#fff;}</style><linearGradient id="linear-gradient" x1="643.56" y1="82.87" x2="833.81" y2="82.87" gradientUnits="userSpaceOnUse"><stop offset="0.02" stop-color="#666"/><stop offset="0.11" stop-color="#a9a9a7"/><stop offset="0.17" stop-color="#c1c1bf"/><stop offset="0.25" stop-color="#d8d8d7"/><stop offset="0.34" stop-color="#e9e9e9"/><stop offset="0.44" stop-color="#f6f6f6"/><stop offset="0.58" stop-color="#fdfdfd"/><stop offset="0.89" stop-color="#fff"/></linearGradient></defs><g class="cls-1"><g id="Layer_2" data-name="Layer 2"><g id="Layer_1-2" data-name="Layer 1"><polygon class="cls-2" points="801.53 0.32 790.93 0.32 51.69 0.32 41.09 0.32 0 83.18 41.09 166.05 51.69 166.05 790.93 166.05 801.53 166.05 842.62 83.18 801.53 0.32"/><polygon class="cls-3" points="792.72 0 782.12 0 695.26 0 684.66 0 643.57 82.87 684.66 165.74 695.26 165.74 782.12 165.74 792.72 165.74 833.81 82.87 792.72 0"/><path class="cls-4" d="M712.86,65.4a10.65,10.65,0,0,0,9.58-15.34,7.86,7.86,0,0,1,14.16,3.11,7,7,0,0,0-.74.46,10.45,10.45,0,0,0-5.43-1.57h-.23v2.67h.23a7.91,7.91,0,0,1,3.44.82c-.11.15-.23.28-.33.44l-.45.67,2.22,1.48.44-.68a6.16,6.16,0,0,1,5.12-2.73,2.67,2.67,0,0,1,0,5.33h-9.34a2.67,2.67,0,0,1-2.67-2.66H726.2a5.33,5.33,0,0,0,5.33,5.33h33.34a5.34,5.34,0,0,0,0-10.67,8.74,8.74,0,0,0-1.85.21,11.81,11.81,0,0,0-22.1-1.05l-.37.86a9.23,9.23,0,0,0-1.4.17,10.53,10.53,0,0,0-18.26-4.52,10.66,10.66,0,1,0-8,17.67Zm38.92-18.67a9.12,9.12,0,0,1,8.72,6.5c-.22.13-.43.25-.64.4a10.42,10.42,0,0,0-5.43-1.57h-.23v2.67h.23a7.91,7.91,0,0,1,3.44.82c-.11.15-.23.28-.33.44l-.45.67,2.22,1.48.45-.68a6.13,6.13,0,0,1,5.11-2.73,2.67,2.67,0,1,1,0,5.33H745.46a5.23,5.23,0,0,0,.74-2.66,5.33,5.33,0,0,0-3-4.77l.15-.36A9.14,9.14,0,0,1,751.78,46.73Zm-38.92,0a8,8,0,1,1-8,8A8,8,0,0,1,712.86,46.73Z"/><path class="cls-4" d="M776.87,92.07v-6l5.33-4V78.73h-2.66v2l-2.67,2V76.07H774.2V85.4l-2.66-2v-2h-2.67v3.33l5.33,4v3.34H760.87V83.4l5.33-4V76.07h-2.67v2l-2.66,2V74l2.27-2.28-1.88-1.88-3.06,3.06v9.88l-2.67-2v-2h-2.66v3.34l5.33,4v6H739.53V90.36l.66-.22a10.73,10.73,0,0,0,4.2-17.77l-6.19-6.19-5.1,5.1a10.91,10.91,0,0,0-2-2.91l-6.2-6.19-6.19,6.19a10.73,10.73,0,0,0,4.2,17.77l.66.22v5.71H701.82l.65,2.61a42.32,42.32,0,0,0,82.12,0l.65-2.61Zm-36.49,8.34,1.53,2.29a1.74,1.74,0,0,1-1.45,2.7H719.93a1.74,1.74,0,0,1-1.44-2.7l1.53-2.29a5.07,5.07,0,0,0-.06-5.68h20.48a5.12,5.12,0,0,0-.91,2.88A5.07,5.07,0,0,0,740.38,100.41ZM738.2,70l4.3,4.31a8,8,0,0,1-3,13.27V86l3.61-3.61-1.88-1.88-1.73,1.72v-2.9L741.81,77l-1.89-1.89-3,3.06v9.35a8,8,0,0,1-3-13.27Zm-20,6a8,8,0,0,1,2.36-5.7l4.3-4.31,4.31,4.31a7.88,7.88,0,0,1,1.93,3.16A10.65,10.65,0,0,0,728.86,80a11,11,0,0,0,.17,1.82,8.08,8.08,0,0,1-2.83,1.76v-8.4l2.44-3.67L726.42,70l-1.76,2.65-1.52-1.52L721.26,73l2.27,2.27v2.9l-1.72-1.72-1.89,1.88L723.53,82v1.58A8,8,0,0,1,718.2,76Zm8,10.4.66-.22a10.84,10.84,0,0,0,3-1.62,10.69,10.69,0,0,0,6.3,5.62l.67.22v1.71H726.2Zm-9.89,8.37,1.19,1.19a2.44,2.44,0,0,1,.7,1.69,2.38,2.38,0,0,1-.4,1.32l-1.53,2.29a4.41,4.41,0,0,0,3.66,6.85h20.53a4.41,4.41,0,0,0,3.67-6.85l-1.53-2.29a2.38,2.38,0,0,1,.3-3l1.18-1.19h9.12a4.44,4.44,0,0,0-.33,1.67,4.31,4.31,0,0,0,3.28,4.19l5.62,1.41a2.33,2.33,0,0,1,.3,4.42l-8.36,3.34a5.58,5.58,0,0,0-.7,10l3.62,2.07a39.61,39.61,0,0,1-12.72,2.2l-6.78-4.52a.59.59,0,0,1-.26-.49.6.6,0,0,1,.49-.59l4.58-.76a3.5,3.5,0,0,0-.57-7H713.89a39.61,39.61,0,0,1-8.65-16Zm19.34,27,3,2a39.6,39.6,0,0,1-22.14-10.34h24.89a.84.84,0,0,1,.13,1.66l-4.57.76a3.26,3.26,0,0,0-1.28,5.93Zm24.14-1.16-5.46-3.12a2.91,2.91,0,0,1,.37-5.23l8.36-3.35a5,5,0,0,0-.64-9.47L756.79,98a1.67,1.67,0,0,1,.41-3.28h24.62a39.59,39.59,0,0,1-22,25.86Z"/><path class="cls-4" d="M750.2,65.4h2.67v2.67H750.2Z"/><path class="cls-4" d="M752.87,70.73h2.66V73.4h-2.66Z"/><path class="cls-4" d="M758.2,65.4h2.67v2.67H758.2Z"/><path class="cls-4" d="M763.53,68.07h2.67v2.66h-2.67Z"/><path class="cls-4" d="M768.87,73.4h2.67v2.67h-2.67Z"/><path class="cls-4" d="M768.87,65.4h2.67v2.67h-2.67Z"/></g></g></g></svg>