<svg xmlns="http://www.w3.org/2000/svg" xmlns:xlink="http://www.w3.org/1999/xlink" viewBox="0 0 1005.21 221.96"><defs><style>.cls-1{isolation:isolate;}.cls-2{fill:#33a582;}.cls-3{mix-blend-mode:multiply;fill:url(#linear-gradient);}.cls-4{fill:#fff;}</style><linearGradient id="linear-gradient" x1="739.39" y1="110.66" x2="993.45" y2="110.66" gradientUnits="userSpaceOnUse"><stop offset="0.02" stop-color="#666"/><stop offset="0.11" stop-color="#a9a9a7"/><stop offset="0.17" stop-color="#c1c1bf"/><stop offset="0.25" stop-color="#d8d8d7"/><stop offset="0.34" stop-color="#e9e9e9"/><stop offset="0.44" stop-color="#f6f6f6"/><stop offset="0.58" stop-color="#fdfdfd"/><stop offset="0.89" stop-color="#fff"/></linearGradient></defs><g class="cls-1"><g id="Layer_2" data-name="Layer 2"><g id="Layer_1-2" data-name="Layer 1"><polygon class="cls-2" points="950.34 0.63 936.18 0.63 0 0.63 0 0.63 0 111.29 0 221.96 0 221.96 936.18 221.96 950.34 221.96 1005.21 111.29 950.34 0.63"/><polygon class="cls-3" points="938.57 0 924.42 0 808.42 0 794.26 0 739.39 110.66 794.26 221.33 808.42 221.33 924.42 221.33 938.57 221.33 993.45 110.66 938.57 0"/><path class="cls-4" d="M884.27,71.12a10,10,0,0,0-19.74,0c-19.35,1.28-38.32,6.54-38.32,15.74v48c0,7.86,13.59,11.87,21.7,13.56a2,2,0,0,0,.41,0,2,2,0,0,0,2-2V124.9c1.3-.24,2.63-.47,4-.67V125a2,2,0,0,0,2,2h6v30.12a2,2,0,0,0,2,2h20.08a2,2,0,0,0,2-2V127h6a2,2,0,0,0,2-2v-.78c1.4.21,2.77.44,4.1.69v21.49a2,2,0,0,0,.75,1.56,2,2,0,0,0,1.26.45,1.84,1.84,0,0,0,.41,0c8.07-1.69,21.59-5.7,21.59-13.54v-48C922.59,77.66,903.62,72.4,884.27,71.12Zm-9.87-4.34a6,6,0,1,1-6,6A6,6,0,0,1,874.4,66.78Zm-28.08,54.86c-.83.19-1.67.37-2.44.57a2,2,0,0,0,.5,4,2.22,2.22,0,0,0,.51-.06c.45-.12,1-.22,1.43-.33v18.16c-11.1-2.65-16.1-6.41-16.1-9.09a3.64,3.64,0,0,1,1-2.3,2,2,0,0,0-.19-2.83,2.09,2.09,0,0,0-.86-.42V93.63c4.21,3.22,10.91,5.26,16.1,6.45v21.56ZM890.46,123h-6a2,2,0,0,0-2,2v30.12H866.37V125a2,2,0,0,0-2-2h-6V97.05a2,2,0,0,1,.81-1.65,28.39,28.39,0,0,1,30.49,0,2,2,0,0,1,.82,1.65v26Zm28.11,6.29a2.12,2.12,0,0,0-.85.42,2,2,0,0,0-.19,2.83,3.62,3.62,0,0,1,1,2.3c0,2.67-5,6.41-16,9.06V125.79c.43.11.89.2,1.31.31a2.22,2.22,0,0,0,.51.06,2,2,0,0,0,.5-4c-.74-.19-1.54-.36-2.32-.54V100.05c5.15-1.18,11.79-3.22,16-6.42v35.66ZM900.18,96.47a2,2,0,0,0-1.6,2v22.4c-1.33-.24-2.7-.47-4.1-.67V97.05a5.94,5.94,0,0,0-2.65-5A32.44,32.44,0,0,0,857,92a5.91,5.91,0,0,0-2.65,5v23.12c-1.36.2-2.7.41-4,.65V98.46a2,2,0,0,0-1.6-2c-12.78-2.67-18.51-6.77-18.51-9.64,0-4.63,13.13-10.31,34.44-11.72a10,10,0,0,0,19.47,0c21.32,1.41,34.44,7.09,34.44,11.72C918.57,89.72,912.89,93.8,900.18,96.47Z"/><path class="cls-4" d="M834.13,130a2,2,0,0,0,1-.24,33.91,33.91,0,0,1,4.74-2.07,2,2,0,1,0-1.36-3.78,38.79,38.79,0,0,0-5.28,2.31,2,2,0,0,0,1,3.78Z"/><path class="cls-4" d="M909,127.65a33.75,33.75,0,0,1,4.73,2.07,2.07,2.07,0,0,0,1,.24,2,2,0,0,0,1-3.78,39.34,39.34,0,0,0-5.28-2.31,2,2,0,0,0-1.36,3.78Z"/></g></g></g></svg>