<svg xmlns="http://www.w3.org/2000/svg" xmlns:xlink="http://www.w3.org/1999/xlink" viewBox="0 0 1005.21 221.33"><defs><style>.cls-1{isolation:isolate;}.cls-2{fill:#bd6b99;}.cls-3{mix-blend-mode:multiply;fill:url(#linear-gradient);}.cls-4{fill:#fff;}</style><linearGradient id="linear-gradient" x1="739.39" y1="110.66" x2="993.45" y2="110.66" gradientUnits="userSpaceOnUse"><stop offset="0.02" stop-color="#666"/><stop offset="0.11" stop-color="#a9a9a7"/><stop offset="0.17" stop-color="#c1c1bf"/><stop offset="0.25" stop-color="#d8d8d7"/><stop offset="0.34" stop-color="#e9e9e9"/><stop offset="0.44" stop-color="#f6f6f6"/><stop offset="0.58" stop-color="#fdfdfd"/><stop offset="0.89" stop-color="#fff"/></linearGradient></defs><g class="cls-1"><g id="Layer_2" data-name="Layer 2"><g id="Layer_1-2" data-name="Layer 1"><polygon class="cls-2" points="950.34 0 936.18 0 0 0 0 0 0 110.66 0 221.33 0 221.33 936.18 221.33 950.34 221.33 1005.21 110.66 950.34 0"/><polygon class="cls-3" points="938.57 0 924.42 0 808.42 0 794.26 0 739.39 110.66 794.26 221.33 808.42 221.33 924.42 221.33 938.57 221.33 993.45 110.66 938.57 0"/><path class="cls-4" d="M854.53,110.14a6.9,6.9,0,1,1-6.9,6.9A6.89,6.89,0,0,1,854.53,110.14Z"/><path class="cls-4" d="M921.69,115.68l4.68-36.87L892.82,66.08,852.58,85.3,817.52,70.49l4.74,39.33-4.54,38.74,37.25,7,38-7.24,33.53,7.74ZM892.7,70l29.71,11.2-2,16.12-29.62-7.49Zm-3.93,2L887.2,88.91h0l-20.51,2.64-.12.45c0,.1-2.41,8.89-4.92,12.89a13.87,13.87,0,0,0-5.39-1.84l-1.67-14.69Zm-3.14,37.65-17.82,2.69a14.14,14.14,0,0,0-5-6.72c2.34-3.72,4.44-10.93,5-12.83l19.3-2.49ZM851,88.54l1.65,14.55a14.11,14.11,0,0,0-11.49,9.65l-15.2-2.35L824.45,96.3c5-.33,8.82-2,11.24-4.9a13.67,13.67,0,0,0,2.93-8.07Zm-29-12.27,15.32,6.47a12.5,12.5,0,0,1-2.62,7.77c-2.18,2.63-5.65,4.1-10.34,4.4Zm-.2,69.36L825.48,114l15,2.32c0,.24,0,.48,0,.73a14,14,0,0,0,3.05,8.72L835.7,132l-2.45,15.78Zm29.37,5.5-16.46-3.08L837,132.76l7.41-5.94a14,14,0,0,0,8.78,4.24ZM843.23,117a11.3,11.3,0,1,1,11.3,11.29A11.31,11.31,0,0,1,843.23,117ZM855,151.86l-.32-.06,2.2-20.88A14.1,14.1,0,0,0,868.62,117c0-.37,0-.74-.06-1.11L886,113.29l1.45,14.86c-7.64.36-13.36,2.71-17,7-4.2,5.06-4.39,11.38-4.18,14.5Zm12.74-2.43c-.17-3,.08-8.77,3.86-13.34,3.34-4,8.74-6.22,16-6.54l1.55,15.8Zm22.91-58.21,29.57,7.47-1.77,14-29.2-3.53Zm23.78,33.51-13.46-1.59L903.41,147l-10.78-2.31-3.06-31.93.32-.05,28.22,3.58,4.18,35.07-17.47-4-2.31-22.6,12,1.39Z"/></g></g></g></svg>