<svg xmlns="http://www.w3.org/2000/svg" xmlns:xlink="http://www.w3.org/1999/xlink" viewBox="0 0 1005.62 221.33"><defs><style>.cls-1{isolation:isolate;}.cls-2{fill:#27a0d6;}.cls-3{mix-blend-mode:multiply;fill:url(#linear-gradient);}.cls-4{fill:#fff;}</style><linearGradient id="linear-gradient" x1="739.8" y1="110.66" x2="993.86" y2="110.66" gradientUnits="userSpaceOnUse"><stop offset="0.02" stop-color="#666"/><stop offset="0.11" stop-color="#a9a9a7"/><stop offset="0.17" stop-color="#c1c1bf"/><stop offset="0.25" stop-color="#d8d8d7"/><stop offset="0.34" stop-color="#e9e9e9"/><stop offset="0.44" stop-color="#f6f6f6"/><stop offset="0.58" stop-color="#fdfdfd"/><stop offset="0.89" stop-color="#fff"/></linearGradient></defs><g class="cls-1"><g id="Layer_2" data-name="Layer 2"><g id="Layer_1-2" data-name="Layer 1"><polygon class="cls-2" points="950.75 0 936.59 0 0 0 0 0 0 110.66 0 221.33 0 221.33 936.59 221.33 950.75 221.33 1005.62 110.66 950.75 0"/><polygon class="cls-3" points="938.98 0 924.83 0 808.83 0 794.67 0 739.8 110.66 794.67 221.33 808.83 221.33 924.83 221.33 938.98 221.33 993.86 110.66 938.98 0"/><path class="cls-4" d="M879.68,138.8h-8.31a2.08,2.08,0,0,0,0,4.16h8.31a2.08,2.08,0,1,0,0-4.16Z"/><path class="cls-4" d="M911,115.94a10.49,10.49,0,0,0-5.55-9.12,12.47,12.47,0,0,0-11.23-17.89A12.35,12.35,0,0,0,889.14,90a14.42,14.42,0,0,0-27.23,0,12.36,12.36,0,0,0-5.09-1.08,12.45,12.45,0,0,0-11.22,17.89,10.33,10.33,0,0,0,2.92,19.31,1.41,1.41,0,0,0,0,.2,8.32,8.32,0,0,0,8.31,8.32h.12a17.94,17.94,0,0,0,.67,3.29.75.75,0,0,0,0,.16,18.7,18.7,0,0,0,35.73,0s0-.1.05-.16a18.81,18.81,0,0,0,.67-3.29h.11a8.33,8.33,0,0,0,8.32-8.32c0-.06,0-.13,0-.2a10.57,10.57,0,0,0,5.33-2.82A10.22,10.22,0,0,0,911,115.94Zm-66.77,0a6.34,6.34,0,0,1,4.93-6.06,2.09,2.09,0,0,0,1.15-3.32,8.18,8.18,0,0,1-1.8-5.16,8.32,8.32,0,0,1,8.31-8.31,8.22,8.22,0,0,1,5.11,1.75,2.07,2.07,0,0,0,3.33-1.31,10.34,10.34,0,0,1,20.52,0,2.09,2.09,0,0,0,1.3,1.61,2.06,2.06,0,0,0,2-.3,8.19,8.19,0,0,1,5.1-1.75,8.31,8.31,0,0,1,6.52,13.47,2.08,2.08,0,0,0,1.15,3.32,6.2,6.2,0,0,1-.51,12.23,8.33,8.33,0,0,0-7.16-4.09v-6.23a2.07,2.07,0,0,0-1.14-1.86,39.29,39.29,0,0,0-35.11,0,2.08,2.08,0,0,0-1.15,1.86V118a8.32,8.32,0,0,0-7.15,4.09A6.28,6.28,0,0,1,844.23,115.94Zm45.84-2.07h-6.24a10.37,10.37,0,0,0-8.31,4.16,10.35,10.35,0,0,0-8.31-4.16H861v-.77a35.31,35.31,0,0,1,29.09,0Zm-37.4,12.46a4.15,4.15,0,0,1,4.15-4.15v8.31A4.15,4.15,0,0,1,852.67,126.33Zm22.85,20.78A14.57,14.57,0,0,1,862,138a14.44,14.44,0,0,1,9.33-3.38,2.08,2.08,0,1,0,0-4.16A18.56,18.56,0,0,0,861,133.61c0-.34,0-.69,0-1V118h6.23a6.25,6.25,0,0,1,6.24,6.24,2.08,2.08,0,0,0,4.15,0,6.25,6.25,0,0,1,6.23-6.24h6.24s0,15.25,0,15.59a18.56,18.56,0,0,0-10.35-3.12,2.08,2.08,0,1,0,0,4.16A14.41,14.41,0,0,1,889,138,14.56,14.56,0,0,1,875.52,147.11Zm18.7-16.62v-8.31a4.16,4.16,0,1,1,0,8.31Z"/><path class="cls-4" d="M869.29,124.26a2.08,2.08,0,1,1-2.08-2.08A2.08,2.08,0,0,1,869.29,124.26Z"/><path class="cls-4" d="M885.91,124.26a2.08,2.08,0,1,1-2.08-2.08A2.08,2.08,0,0,1,885.91,124.26Z"/></g></g></g></svg>