<svg xmlns="http://www.w3.org/2000/svg" xmlns:xlink="http://www.w3.org/1999/xlink" viewBox="0 0 842.62 165.74"><defs><style>.cls-1{isolation:isolate;}.cls-2{fill:#bd6b99;}.cls-3{mix-blend-mode:multiply;fill:url(#linear-gradient);}.cls-4{fill:#fff;}</style><linearGradient id="linear-gradient" x1="643.56" y1="82.87" x2="833.81" y2="82.87" gradientUnits="userSpaceOnUse"><stop offset="0.02" stop-color="#666"/><stop offset="0.11" stop-color="#a9a9a7"/><stop offset="0.17" stop-color="#c1c1bf"/><stop offset="0.25" stop-color="#d8d8d7"/><stop offset="0.34" stop-color="#e9e9e9"/><stop offset="0.44" stop-color="#f6f6f6"/><stop offset="0.58" stop-color="#fdfdfd"/><stop offset="0.89" stop-color="#fff"/></linearGradient></defs><g class="cls-1"><g id="Layer_2" data-name="Layer 2"><g id="Layer_1-2" data-name="Layer 1"><polygon class="cls-2" points="801.53 0 790.93 0 51.69 0 41.09 0 0 82.87 41.09 165.74 51.69 165.74 790.93 165.74 801.53 165.74 842.62 82.87 801.53 0"/><polygon class="cls-3" points="792.72 0 782.12 0 695.26 0 684.66 0 643.57 82.87 684.66 165.74 695.26 165.74 782.12 165.74 792.72 165.74 833.81 82.87 792.72 0"/><path class="cls-4" d="M729.78,82.48a5.17,5.17,0,1,1-5.16,5.16A5.16,5.16,0,0,1,729.78,82.48Z"/><path class="cls-4" d="M780.08,86.62,783.58,59l-25.12-9.53L728.33,63.87,702.07,52.79l3.55,29.45-3.4,29,27.9,5.23,28.45-5.42,25.11,5.79ZM758.37,52.4l22.25,8.39-1.53,12.07-22.18-5.61Zm-2.94,1.54-1.18,12.64h0l-15.35,2-.09.33c0,.08-1.81,6.66-3.68,9.65a10.63,10.63,0,0,0-4.05-1.37l-1.24-11Zm-2.35,28.19-13.35,2a10.6,10.6,0,0,0-3.75-5c1.75-2.79,3.33-8.19,3.72-9.62l14.45-1.86Zm-26-15.83,1.23,10.9a10.55,10.55,0,0,0-8.6,7.23l-11.39-1.76-1.09-10.56c3.77-.25,6.6-1.48,8.42-3.67a10.23,10.23,0,0,0,2.19-6Zm-21.75-9.18L716.83,62a9.35,9.35,0,0,1-2,5.81c-1.63,2-4.23,3.08-7.74,3.3Zm-.15,51.93L708,85.36l11.23,1.74c0,.18,0,.36,0,.54a10.53,10.53,0,0,0,2.28,6.54l-5.82,4.68-1.84,11.81Zm22,4.12-12.32-2.31,1.78-11.44L722.21,95a10.49,10.49,0,0,0,6.57,3.18Zm-5.87-25.53a8.46,8.46,0,1,1,8.45,8.46A8.47,8.47,0,0,1,721.33,87.64Zm8.78,26.08-.23,0L731.52,98a10.56,10.56,0,0,0,8.82-10.4c0-.28,0-.56,0-.84l13-2L754.43,96c-5.72.27-10,2-12.69,5.28-3.14,3.79-3.29,8.52-3.13,10.86Zm9.55-1.82c-.13-2.22.05-6.57,2.88-10,2.51-3,6.55-4.66,12-4.9l1.16,11.84Zm17.15-43.59L779,73.91l-1.33,10.46-21.87-2.64Zm17.81,25.1-10.08-1.2,1.85,17.87-8.07-1.73L756,84.43l.23,0,21.14,2.68,3.13,26.27-13.08-3L765.72,93.4l9,1Z"/></g></g></g></svg>