<svg xmlns="http://www.w3.org/2000/svg" xmlns:xlink="http://www.w3.org/1999/xlink" viewBox="0 0 1005.62 221.96"><defs><style>.cls-1{isolation:isolate;}.cls-2{fill:#27a0d6;}.cls-3{mix-blend-mode:multiply;fill:url(#linear-gradient);}.cls-4{fill:#fff;}</style><linearGradient id="linear-gradient" x1="739.8" y1="110.66" x2="993.86" y2="110.66" gradientUnits="userSpaceOnUse"><stop offset="0.02" stop-color="#666"/><stop offset="0.11" stop-color="#a9a9a7"/><stop offset="0.17" stop-color="#c1c1bf"/><stop offset="0.25" stop-color="#d8d8d7"/><stop offset="0.34" stop-color="#e9e9e9"/><stop offset="0.44" stop-color="#f6f6f6"/><stop offset="0.58" stop-color="#fdfdfd"/><stop offset="0.89" stop-color="#fff"/></linearGradient></defs><g class="cls-1"><g id="Layer_2" data-name="Layer 2"><g id="Layer_1-2" data-name="Layer 1"><polygon class="cls-2" points="950.75 0.63 936.59 0.63 0 0.63 0 0.63 0 111.29 0 221.96 0 221.96 936.59 221.96 950.75 221.96 1005.62 111.29 950.75 0.63"/><polygon class="cls-3" points="938.98 0 924.83 0 808.83 0 794.67 0 739.8 110.66 794.67 221.33 808.83 221.33 924.83 221.33 938.98 221.33 993.86 110.66 938.98 0"/><path class="cls-4" d="M861.59,104.33a9.15,9.15,0,0,1,1.74.19,5.78,5.78,0,0,1,3.63,2.24,6.09,6.09,0,0,1-3.06.81,7.2,7.2,0,0,1-1.29-.12,5.23,5.23,0,0,1-3.78-2.37,4.85,4.85,0,0,1,2.76-.75m0-2.79a6.76,6.76,0,0,0-6,2.9,7.62,7.62,0,0,0,6.51,5.76,10.32,10.32,0,0,0,1.78.16,8.67,8.67,0,0,0,6.49-2.82,8.3,8.3,0,0,0-6.5-5.75,11.59,11.59,0,0,0-2.3-.25Z"/><path class="cls-4" d="M865.83,124.65a30.33,30.33,0,0,0,6.65,1.72v4.38a13.43,13.43,0,0,1-3.94-2.76,19.07,19.07,0,0,1-2.7-3.34m-5.39-5.6A23.06,23.06,0,0,0,866.57,130c2.7,2.63,5.73,4.13,8.22,4.14l.47,0V123.73h-.46c-6.55,0-14.37-4.69-14.37-4.69Z"/><path class="cls-4" d="M904.19,84.69c-.13,15.24-3.61,30-9.82,41.56-4.77,8.89-10.81,14.91-16.33,16.49v-6.39a18.84,18.84,0,0,0,7.06-4.49,24.27,24.27,0,0,0,6.8-12.22l1.37-6.46-5.59,3.52a33,33,0,0,1-9.63,3.9V109l.21.26a11.41,11.41,0,0,0,8.69,3.86,13.22,13.22,0,0,0,2.24-.2,10.76,10.76,0,0,0,7.21-4.4,9.48,9.48,0,0,0,1.57-3.63l.17-1-.48-.86a9.62,9.62,0,0,0-8.41-4.33h0a14.34,14.34,0,0,0-2.86.3,11.16,11.16,0,0,0-8.34,6.84V91.82l-.23-.07,26.35-7.06M843.58,81v2.77c0,23,5.51,37.56,10.14,45.71,5.84,10.3,13.9,16.45,21.53,16.45h0c7.33,0,15.4-6.86,21.57-18.36C903.37,115.37,907,99.83,907,83.82V81.05l-31.71,8.5L843.58,81Zm31.67,60.68c-6.08,0-12.75-5.35-17.85-14.3-4.18-7.38-9.14-20.36-9.54-40.82L875.28,94l0,47.73ZM887,110.37a8.72,8.72,0,0,1-6.52-2.82,8.32,8.32,0,0,1,6.52-5.74,11.59,11.59,0,0,1,2.3-.25,6.73,6.73,0,0,1,6,2.9,7.57,7.57,0,0,1-6.51,5.75,10.09,10.09,0,0,1-1.76.16Zm-11.7,23.73V123.73c6.84-.19,13.9-4.67,13.9-4.67a21.57,21.57,0,0,1-6,10.8c-2.58,2.51-5.48,4-7.9,4.24Z"/></g></g></g></svg>