<svg xmlns="http://www.w3.org/2000/svg" xmlns:xlink="http://www.w3.org/1999/xlink" viewBox="0 0 842.62 166.21"><defs><style>.cls-1{isolation:isolate;}.cls-2{fill:#33a582;}.cls-3{mix-blend-mode:multiply;fill:url(#linear-gradient);}.cls-4{fill:#fff;}</style><linearGradient id="linear-gradient" x1="643.56" y1="82.87" x2="833.81" y2="82.87" gradientUnits="userSpaceOnUse"><stop offset="0.02" stop-color="#666"/><stop offset="0.11" stop-color="#a9a9a7"/><stop offset="0.17" stop-color="#c1c1bf"/><stop offset="0.25" stop-color="#d8d8d7"/><stop offset="0.34" stop-color="#e9e9e9"/><stop offset="0.44" stop-color="#f6f6f6"/><stop offset="0.58" stop-color="#fdfdfd"/><stop offset="0.89" stop-color="#fff"/></linearGradient></defs><g class="cls-1"><g id="Layer_2" data-name="Layer 2"><g id="Layer_1-2" data-name="Layer 1"><polygon class="cls-2" points="801.53 0.47 790.93 0.47 51.69 0.47 41.09 0.47 0 83.34 41.09 166.21 51.69 166.21 790.93 166.21 801.53 166.21 842.62 83.34 801.53 0.47"/><polygon class="cls-3" points="792.72 0 782.12 0 695.26 0 684.66 0 643.57 82.87 684.66 165.74 695.26 165.74 782.12 165.74 792.72 165.74 833.81 82.87 792.72 0"/><path class="cls-4" d="M752.06,53.26a7.5,7.5,0,0,0-14.79,0c-14.49,1-28.69,4.9-28.69,11.78V101c0,5.89,10.18,8.89,16.25,10.16a1.63,1.63,0,0,0,.31,0,1.5,1.5,0,0,0,1-.33,1.52,1.52,0,0,0,.55-1.17V93.53c1-.18,2-.35,3-.5v.58a1.51,1.51,0,0,0,1.5,1.51h4.51v22.55a1.51,1.51,0,0,0,1.51,1.5h15a1.51,1.51,0,0,0,1.51-1.5V95.12h4.51a1.51,1.51,0,0,0,1.5-1.51V93c1,.15,2.08.33,3.08.52v16.09a1.52,1.52,0,0,0,.55,1.17,1.5,1.5,0,0,0,.95.33,1.63,1.63,0,0,0,.31,0c6-1.27,16.16-4.27,16.16-10.14V65C780.75,58.16,766.55,54.21,752.06,53.26ZM744.66,50a4.51,4.51,0,1,1-4.51,4.51A4.52,4.52,0,0,1,744.66,50Zm-21,41.08c-.61.14-1.24.28-1.82.43a1.5,1.5,0,0,0,.38,3,1.73,1.73,0,0,0,.38,0c.34-.09.71-.17,1.07-.25v13.6c-8.31-2-12-4.8-12-6.81a2.7,2.7,0,0,1,.78-1.72,1.48,1.48,0,0,0-.78-2.43V70.11c3.14,2.41,8.16,3.94,12,4.83V91.09Zm33.06,1h-4.51a1.5,1.5,0,0,0-1.5,1.5v22.56h-12V93.61a1.5,1.5,0,0,0-1.5-1.5h-4.51V72.67a1.46,1.46,0,0,1,.61-1.23,21.23,21.23,0,0,1,22.83,0,1.46,1.46,0,0,1,.61,1.23V92.11Zm21,4.71a1.61,1.61,0,0,0-.63.31,1.5,1.5,0,0,0-.15,2.12,2.7,2.7,0,0,1,.78,1.72c0,2-3.71,4.8-12,6.79V94.2l1,.23a1.73,1.73,0,0,0,.38,0,1.5,1.5,0,0,0,.38-3c-.55-.15-1.15-.27-1.74-.41V74.92c3.86-.88,8.83-2.41,12-4.81V96.82ZM764,72.24a1.5,1.5,0,0,0-1.19,1.47V90.49c-1-.18-2-.35-3.08-.5V72.67a4.44,4.44,0,0,0-2-3.75,24.31,24.31,0,0,0-26.11,0,4.44,4.44,0,0,0-2,3.75V90c-1,.14-2,.31-3,.48V73.73a1.51,1.51,0,0,0-1.19-1.47c-9.58-2-13.86-5.06-13.86-7.22,0-3.47,9.83-7.71,25.78-8.77a7.5,7.5,0,0,0,14.59,0c15.95,1.06,25.78,5.3,25.78,8.77C777.74,67.19,773.49,70.24,764,72.24Z"/><path class="cls-4" d="M714.51,97.32a1.5,1.5,0,0,0,.71-.18,25.46,25.46,0,0,1,3.55-1.55,1.5,1.5,0,1,0-1-2.83,29.53,29.53,0,0,0-4,1.73,1.51,1.51,0,0,0,.71,2.83Z"/><path class="cls-4" d="M770.56,95.59a25.46,25.46,0,0,1,3.55,1.55,1.5,1.5,0,0,0,1.42-2.65,29.53,29.53,0,0,0-3.95-1.73,1.5,1.5,0,1,0-1,2.83Z"/></g></g></g></svg>