<svg xmlns="http://www.w3.org/2000/svg" xmlns:xlink="http://www.w3.org/1999/xlink" viewBox="0 0 1754.36 1803.31"><defs><style>.cls-1{fill:none;}.cls-2{clip-path:url(#clip-path);}.cls-3{fill:#bd6b99;}.cls-4{fill:#41c6c6;}.cls-5{fill:#012e87;}.cls-6{fill:#f1793d;}.cls-7{fill:#27a0d6;}.cls-8{fill:#33a582;}.cls-9{fill:#fff;}</style><clipPath id="clip-path" transform="translate(351.36 -12.32)"><rect class="cls-1" width="1125" height="787"/></clipPath></defs><g id="Layer_2" data-name="Layer 2"><g id="Layer_1-2" data-name="Layer 1"><g class="cls-2"><polygon class="cls-3" points="632.41 183.48 636.4 179.49 669.09 146.8 673.08 142.81 657.36 96.16 610.71 80.44 606.72 84.43 574.03 117.12 570.04 121.11 585.76 167.75 632.41 183.48"/><polygon class="cls-4" points="513.01 302.87 517 298.88 549.69 266.2 553.68 262.21 537.96 215.56 491.31 199.84 487.32 203.83 454.63 236.52 450.64 240.5 466.37 287.15 513.01 302.87"/><polygon class="cls-5" points="446.68 236.54 450.67 232.55 483.36 199.87 487.35 195.88 471.63 149.23 424.98 133.51 420.99 137.5 388.3 170.18 384.31 174.17 400.03 220.82 446.68 236.54"/><polygon class="cls-6" points="606.32 276.34 610.31 272.35 643 239.66 646.99 235.68 631.27 189.03 584.62 173.31 580.63 177.3 547.94 209.98 543.95 213.97 559.67 260.62 606.32 276.34"/><polygon class="cls-5" points="567.62 116.48 571.61 112.49 604.29 79.81 608.28 75.82 592.56 29.17 545.91 13.45 541.93 17.44 509.24 50.12 505.25 54.11 520.97 100.76 567.62 116.48"/><polygon class="cls-7" points="420.59 328.96 424.58 324.98 457.27 292.29 461.26 288.3 445.54 241.65 398.89 225.93 394.9 229.92 362.21 262.61 358.22 266.6 373.94 313.24 420.59 328.96"/><polygon class="cls-6" points="393.67 421.51 397.66 417.53 430.34 384.84 434.33 380.85 418.61 334.2 371.96 318.48 367.97 322.47 335.29 355.16 331.3 359.15 347.02 405.79 393.67 421.51"/><polygon class="cls-8" points="673.1 341.79 677.09 337.8 709.77 305.11 713.76 301.12 698.04 254.48 651.39 238.75 647.4 242.74 614.72 275.43 610.73 279.42 626.45 326.07 673.1 341.79"/><polygon class="cls-7" points="740.17 408.87 744.16 404.88 776.85 372.19 780.84 368.2 765.12 321.55 718.47 305.83 714.48 309.82 681.79 342.51 677.8 346.5 693.52 393.14 740.17 408.87"/><polygon class="cls-5" points="554.87 461.2 558.86 457.21 591.55 424.52 595.54 420.53 579.82 373.89 533.17 358.17 529.18 362.15 496.49 394.84 492.5 398.83 508.22 445.48 554.87 461.2"/><polygon class="cls-3" points="1171.79 81.35 1167.8 77.36 1135.11 44.67 1131.12 40.68 1084.47 56.41 1068.75 103.05 1072.74 107.04 1105.43 139.73 1109.42 143.72 1156.07 128 1171.79 81.35"/><polygon class="cls-4" points="1291.18 200.75 1287.19 196.76 1254.51 164.07 1250.52 160.08 1203.87 175.8 1188.15 222.45 1192.14 226.44 1224.83 259.13 1228.82 263.12 1275.46 247.4 1291.18 200.75"/><polygon class="cls-5" points="1224.85 267.08 1220.86 263.09 1188.17 230.4 1184.19 226.41 1137.54 242.13 1121.82 288.78 1125.81 292.77 1158.49 325.46 1162.48 329.45 1209.13 313.73 1224.85 267.08"/><polygon class="cls-6" points="1264.65 107.44 1260.66 103.45 1227.97 70.76 1223.98 66.78 1177.34 82.5 1161.62 129.14 1165.61 133.13 1198.29 165.82 1202.28 169.81 1248.93 154.09 1264.65 107.44"/><polygon class="cls-5" points="1104.79 146.14 1100.8 142.15 1068.12 109.47 1064.13 105.48 1017.48 121.2 1001.76 167.85 1005.75 171.84 1038.43 204.52 1042.42 208.51 1089.07 192.79 1104.79 146.14"/><polygon class="cls-7" points="1317.28 293.17 1313.29 289.18 1280.6 256.5 1276.61 252.5 1229.96 268.23 1214.24 314.87 1218.23 318.86 1250.92 351.55 1254.91 355.54 1301.55 339.82 1317.28 293.17"/><polygon class="cls-6" points="1409.83 320.09 1405.84 316.11 1373.15 283.42 1369.16 279.43 1322.51 295.15 1306.79 341.8 1310.78 345.79 1343.47 378.47 1347.46 382.46 1394.1 366.74 1409.83 320.09"/><polygon class="cls-8" points="1330.1 40.67 1326.11 36.68 1293.42 3.99 1289.43 0 1242.79 15.72 1227.06 62.37 1231.05 66.36 1263.74 99.05 1267.73 103.03 1314.38 87.31 1330.1 40.67"/><polygon class="cls-5" points="1449.51 158.89 1445.52 154.9 1412.83 122.21 1408.84 118.22 1362.2 133.95 1346.47 180.59 1350.46 184.58 1383.15 217.27 1387.14 221.26 1433.79 205.54 1449.51 158.89"/><polygon class="cls-3" points="1061.95 1803.31 1129.88 1735.38 1686.43 1178.82 1754.36 1110.89 1486.68 316.63 692.41 48.95 624.48 116.88 67.93 673.43 0 741.36 267.68 1535.63 1061.95 1803.31"/><path class="cls-9" d="M574.5,300.78a3.54,3.54,0,0,1-3.54-3.54V244.92H547.53v5.66h3a3.55,3.55,0,0,1,3.54,3.54v43.12a3.54,3.54,0,0,1-3.54,3.54h-3v5.67h29.94l0-5.67Z" transform="translate(351.36 -12.32)"/><path class="cls-9" d="M560.93,233.12a11.21,11.21,0,1,0,0-22.42v0h0a11.24,11.24,0,0,0,0,22.47Z" transform="translate(351.36 -12.32)"/></g></g></g></svg>