<svg xmlns="http://www.w3.org/2000/svg" xmlns:xlink="http://www.w3.org/1999/xlink" viewBox="0 0 1754.36 1813.86"><defs><style>.cls-1{fill:none;}.cls-2{clip-path:url(#clip-path);}.cls-3{fill:#bd6b99;}.cls-4{fill:#41c6c6;}.cls-5{fill:#012e87;}.cls-6{fill:#f1793d;}.cls-7{fill:#27a0d6;}.cls-8{fill:#33a582;}.cls-9{fill:#333;}</style><clipPath id="clip-path" transform="translate(268.36 -16.77)"><rect class="cls-1" width="1126" height="498"/></clipPath></defs><g id="Layer_2" data-name="Layer 2"><g id="Layer_1-2" data-name="Layer 1"><g class="cls-2"><polygon class="cls-3" points="608.41 170.03 612.4 166.04 645.09 133.35 649.08 129.36 633.36 82.72 586.71 67 582.72 70.98 550.03 103.67 546.04 107.66 561.76 154.31 608.41 170.03"/><polygon class="cls-4" points="489.01 289.43 493 285.44 525.69 252.75 529.68 248.76 513.96 202.11 467.31 186.39 463.32 190.38 430.63 223.07 426.64 227.06 442.37 273.71 489.01 289.43"/><polygon class="cls-5" points="422.68 223.09 426.67 219.1 459.36 186.42 463.35 182.43 447.63 135.78 400.98 120.06 396.99 124.05 364.3 156.74 360.31 160.73 376.03 207.37 422.68 223.09"/><polygon class="cls-6" points="582.32 262.89 586.31 258.9 619 226.22 622.99 222.23 607.27 175.58 560.62 159.86 556.63 163.85 523.94 196.54 519.95 200.53 535.67 247.17 582.32 262.89"/><polygon class="cls-5" points="543.62 103.03 547.61 99.05 580.29 66.36 584.28 62.37 568.56 15.72 521.91 0 517.93 3.99 485.24 36.68 481.25 40.67 496.97 87.31 543.62 103.03"/><polygon class="cls-7" points="396.59 315.52 400.58 311.53 433.27 278.84 437.26 274.85 421.54 228.2 374.89 212.48 370.9 216.47 338.21 249.16 334.22 253.15 349.94 299.8 396.59 315.52"/><polygon class="cls-6" points="369.67 408.07 373.66 404.08 406.34 371.39 410.33 367.4 394.61 320.75 347.96 305.03 343.97 309.02 311.29 341.71 307.3 345.7 323.02 392.35 369.67 408.07"/><polygon class="cls-8" points="649.1 328.34 653.09 324.35 685.77 291.67 689.76 287.68 674.04 241.03 627.39 225.31 623.4 229.3 590.72 261.98 586.73 265.97 602.45 312.62 649.1 328.34"/><polygon class="cls-7" points="716.17 395.42 720.16 391.43 752.85 358.74 756.84 354.75 741.12 308.11 694.47 292.38 690.48 296.37 657.79 329.06 653.8 333.05 669.52 379.7 716.17 395.42"/><polygon class="cls-5" points="530.87 447.75 534.86 443.76 567.55 411.08 571.54 407.09 555.82 360.44 509.17 344.72 505.18 348.71 472.49 381.39 468.5 385.38 484.22 432.03 530.87 447.75"/><polygon class="cls-3" points="1066.79 130.9 1062.8 126.91 1030.11 94.23 1026.12 90.24 979.47 105.96 963.75 152.61 967.74 156.59 1000.43 189.28 1004.42 193.27 1051.07 177.55 1066.79 130.9"/><polygon class="cls-4" points="1186.18 250.3 1182.19 246.31 1149.51 213.63 1145.52 209.63 1098.87 225.36 1083.15 272 1087.14 275.99 1119.83 308.68 1123.82 312.67 1170.46 296.95 1186.18 250.3"/><polygon class="cls-5" points="1119.85 316.63 1115.86 312.64 1083.17 279.96 1079.19 275.97 1032.54 291.69 1016.82 338.34 1020.81 342.33 1053.49 375.01 1057.48 379 1104.13 363.28 1119.85 316.63"/><polygon class="cls-6" points="1159.65 156.99 1155.66 153 1122.97 120.32 1118.98 116.33 1072.34 132.05 1056.62 178.7 1060.61 182.69 1093.29 215.37 1097.28 219.36 1143.93 203.64 1159.65 156.99"/><polygon class="cls-5" points="999.79 195.7 995.8 191.71 963.12 159.02 959.13 155.03 912.48 170.75 896.76 217.4 900.75 221.39 933.43 254.07 937.42 258.06 984.07 242.34 999.79 195.7"/><polygon class="cls-7" points="1212.28 342.72 1208.29 338.73 1175.6 306.05 1171.61 302.06 1124.96 317.78 1109.24 364.43 1113.23 368.42 1145.92 401.1 1149.91 405.09 1196.55 389.37 1212.28 342.72"/><polygon class="cls-6" points="1304.83 369.65 1300.84 365.66 1268.15 332.97 1264.16 328.98 1217.51 344.7 1201.79 391.35 1205.78 395.34 1238.47 428.03 1242.46 432.02 1289.1 416.3 1304.83 369.65"/><polygon class="cls-8" points="1225.1 90.22 1221.11 86.23 1188.42 53.54 1184.43 49.55 1137.79 65.27 1122.06 111.92 1126.05 115.91 1158.74 148.6 1162.73 152.59 1209.38 136.87 1225.1 90.22"/><polygon class="cls-5" points="1344.51 208.44 1340.52 204.45 1307.83 171.77 1303.84 167.78 1257.2 183.5 1241.47 230.15 1245.46 234.14 1278.15 266.82 1282.14 270.81 1328.79 255.09 1344.51 208.44"/><polygon class="cls-9" points="1061.95 1813.86 1129.88 1745.93 1686.43 1189.38 1754.36 1121.45 1486.68 327.18 692.41 59.5 624.48 127.43 67.93 683.98 0 751.91 267.68 1546.18 1061.95 1813.86"/></g></g></g></svg>